<svg xmlns="http://www.w3.org/2000/svg" xmlns:xlink="http://www.w3.org/1999/xlink" width="100" zoomAndPan="magnify" viewBox="0 0 75 74.999997" height="100" preserveAspectRatio="xMidYMid meet" version="1.0"><defs><g><g id="id1"/><g id="id2"/></g><clipPath id="id3"><path d="M 27 23 L 51 23 L 51 40.160156 L 27 40.160156 Z M 27 23 " clip-rule="nonzero"/></clipPath><clipPath id="id4"><path d="M 15.089844 7.480469 L 60.089844 7.480469 L 60.089844 31 L 15.089844 31 Z M 15.089844 7.480469 " clip-rule="nonzero"/></clipPath><clipPath id="id5"><path d="M 25.359375 48 L 52 48 L 52 55.722656 L 25.359375 55.722656 Z M 25.359375 48 " clip-rule="nonzero"/></clipPath><clipPath id="id6"><path d="M 25.359375 47.6875 L 52.144531 47.6875 L 52.144531 55.722656 L 25.359375 55.722656 Z M 25.359375 47.6875 " clip-rule="nonzero"/></clipPath></defs><g fill="rgb(29.798889%, 43.919373%, 19.219971%)" fill-opacity="1"><g transform="translate(18.764947, 67.239411)"><g><path d="M 13.96875 -5.828125 C 13.9375 -5.828125 13.90625 -5.828125 13.875 -5.828125 C 13.84375 -5.835938 13.816406 -5.851562 13.796875 -5.875 C 13.753906 -5.90625 13.734375 -5.929688 13.734375 -5.953125 C 13.742188 -5.984375 13.757812 -6.007812 13.78125 -6.03125 C 14.039062 -6.457031 14.269531 -6.898438 14.46875 -7.359375 C 14.582031 -7.648438 14.6875 -7.945312 14.78125 -8.25 C 14.84375 -8.4375 14.847656 -8.632812 14.796875 -8.84375 C 14.753906 -9.070312 14.617188 -9.234375 14.390625 -9.328125 C 14.210938 -9.398438 14.035156 -9.4375 13.859375 -9.4375 C 13.816406 -9.4375 13.78125 -9.4375 13.75 -9.4375 C 13.363281 -9.425781 12.992188 -9.375 12.640625 -9.28125 C 12.003906 -9.125 11.394531 -8.929688 10.8125 -8.703125 C 10.226562 -8.484375 9.65625 -8.238281 9.09375 -7.96875 C 6.644531 -6.769531 4.445312 -5.257812 2.5 -3.4375 C 2.007812 -3 1.582031 -2.507812 1.21875 -1.96875 C 1.09375 -1.769531 0.984375 -1.566406 0.890625 -1.359375 C 0.828125 -1.234375 0.785156 -1.101562 0.765625 -0.96875 C 0.679688 -0.519531 0.875 -0.1875 1.34375 0.03125 C 1.738281 0.207031 2.140625 0.304688 2.546875 0.328125 C 2.867188 0.359375 3.179688 0.375 3.484375 0.375 C 3.617188 0.375 3.753906 0.367188 3.890625 0.359375 C 5.816406 0.335938 7.632812 0.0859375 9.34375 -0.390625 C 9.363281 -0.398438 9.390625 -0.410156 9.421875 -0.421875 C 9.535156 -0.453125 9.65625 -0.484375 9.78125 -0.515625 C 9.8125 -0.515625 9.863281 -0.515625 9.9375 -0.515625 C 10.019531 -0.523438 10.09375 -0.519531 10.15625 -0.5 C 10.226562 -0.488281 10.273438 -0.460938 10.296875 -0.421875 C 10.296875 -0.390625 10.289062 -0.363281 10.28125 -0.34375 C 10.269531 -0.332031 10.25 -0.328125 10.21875 -0.328125 C 10.113281 -0.296875 10.007812 -0.269531 9.90625 -0.25 C 9.59375 -0.164062 9.285156 -0.0820312 8.984375 0 C 7.253906 0.4375 5.457031 0.648438 3.59375 0.640625 C 3.207031 0.640625 2.820312 0.632812 2.4375 0.625 C 2.007812 0.601562 1.578125 0.507812 1.140625 0.34375 C 0.273438 0.0078125 -0.0234375 -0.539062 0.234375 -1.3125 C 0.335938 -1.613281 0.484375 -1.894531 0.671875 -2.15625 C 0.941406 -2.539062 1.238281 -2.894531 1.5625 -3.21875 C 1.882812 -3.550781 2.222656 -3.875 2.578125 -4.1875 C 4.148438 -5.570312 5.878906 -6.757812 7.765625 -7.75 C 8.335938 -8.050781 8.921875 -8.332031 9.515625 -8.59375 C 10.117188 -8.851562 10.738281 -9.082031 11.375 -9.28125 C 11.914062 -9.457031 12.46875 -9.585938 13.03125 -9.671875 C 13.257812 -9.703125 13.484375 -9.71875 13.703125 -9.71875 C 13.847656 -9.71875 14 -9.710938 14.15625 -9.703125 C 14.332031 -9.691406 14.503906 -9.65625 14.671875 -9.59375 C 15.148438 -9.425781 15.394531 -9.113281 15.40625 -8.65625 C 15.40625 -8.457031 15.378906 -8.265625 15.328125 -8.078125 C 15.210938 -7.710938 15.066406 -7.363281 14.890625 -7.03125 C 14.722656 -6.695312 14.546875 -6.367188 14.359375 -6.046875 C 14.304688 -5.929688 14.21875 -5.859375 14.09375 -5.828125 C 14.050781 -5.828125 14.015625 -5.828125 13.984375 -5.828125 Z M 13.96875 -5.828125 "/></g></g></g><g fill="rgb(29.798889%, 43.919373%, 19.219971%)" fill-opacity="1"><g transform="translate(29.447543, 67.239411)"><g><path d="M 0.59375 -0.890625 L 0.578125 -0.890625 C 0.222656 -0.890625 -0.0078125 -0.96875 -0.125 -1.125 C -0.238281 -1.28125 -0.234375 -1.488281 -0.109375 -1.75 C -0.00390625 -1.945312 0.125 -2.117188 0.28125 -2.265625 C 0.332031 -2.316406 0.382812 -2.359375 0.4375 -2.390625 C 0.5 -2.421875 0.566406 -2.4375 0.640625 -2.4375 C 0.679688 -2.445312 0.734375 -2.4375 0.796875 -2.40625 C 0.804688 -2.40625 0.820312 -2.398438 0.84375 -2.390625 C 0.882812 -2.398438 0.925781 -2.414062 0.96875 -2.4375 C 0.976562 -2.445312 0.988281 -2.453125 1 -2.453125 C 1.082031 -2.484375 1.171875 -2.5 1.265625 -2.5 C 1.304688 -2.5 1.347656 -2.5 1.390625 -2.5 C 1.535156 -2.476562 1.644531 -2.414062 1.71875 -2.3125 C 1.789062 -2.207031 1.816406 -2.082031 1.796875 -1.9375 C 1.785156 -1.851562 1.757812 -1.769531 1.71875 -1.6875 C 1.425781 -1.175781 1.0625 -0.910156 0.625 -0.890625 Z M 1.1875 -2.234375 C 0.988281 -2.234375 0.8125 -2.171875 0.65625 -2.046875 C 0.507812 -1.929688 0.394531 -1.796875 0.3125 -1.640625 C 0.238281 -1.484375 0.21875 -1.351562 0.25 -1.25 C 0.289062 -1.144531 0.394531 -1.117188 0.5625 -1.171875 C 0.757812 -1.234375 0.929688 -1.34375 1.078125 -1.5 C 1.234375 -1.664062 1.328125 -1.820312 1.359375 -1.96875 C 1.398438 -2.125 1.34375 -2.210938 1.1875 -2.234375 Z M 1.1875 -2.234375 "/></g></g></g><g fill="rgb(29.798889%, 43.919373%, 19.219971%)" fill-opacity="1"><g transform="translate(31.438579, 67.239411)"><g><path d="M 0.59375 -0.890625 L 0.578125 -0.890625 C 0.222656 -0.890625 -0.0078125 -0.96875 -0.125 -1.125 C -0.238281 -1.28125 -0.234375 -1.488281 -0.109375 -1.75 C -0.00390625 -1.945312 0.125 -2.117188 0.28125 -2.265625 C 0.332031 -2.316406 0.382812 -2.359375 0.4375 -2.390625 C 0.5 -2.421875 0.566406 -2.4375 0.640625 -2.4375 C 0.679688 -2.445312 0.734375 -2.4375 0.796875 -2.40625 C 0.804688 -2.40625 0.820312 -2.398438 0.84375 -2.390625 C 0.882812 -2.398438 0.925781 -2.414062 0.96875 -2.4375 C 0.976562 -2.445312 0.988281 -2.453125 1 -2.453125 C 1.082031 -2.484375 1.171875 -2.5 1.265625 -2.5 C 1.304688 -2.5 1.347656 -2.5 1.390625 -2.5 C 1.535156 -2.476562 1.644531 -2.414062 1.71875 -2.3125 C 1.789062 -2.207031 1.816406 -2.082031 1.796875 -1.9375 C 1.785156 -1.851562 1.757812 -1.769531 1.71875 -1.6875 C 1.425781 -1.175781 1.0625 -0.910156 0.625 -0.890625 Z M 1.1875 -2.234375 C 0.988281 -2.234375 0.8125 -2.171875 0.65625 -2.046875 C 0.507812 -1.929688 0.394531 -1.796875 0.3125 -1.640625 C 0.238281 -1.484375 0.21875 -1.351562 0.25 -1.25 C 0.289062 -1.144531 0.394531 -1.117188 0.5625 -1.171875 C 0.757812 -1.234375 0.929688 -1.34375 1.078125 -1.5 C 1.234375 -1.664062 1.328125 -1.820312 1.359375 -1.96875 C 1.398438 -2.125 1.34375 -2.210938 1.1875 -2.234375 Z M 1.1875 -2.234375 "/></g></g></g><g fill="rgb(29.798889%, 43.919373%, 19.219971%)" fill-opacity="1"><g transform="translate(33.429615, 67.239411)"><g><path d="M 2.90625 -1.90625 C 2.925781 -1.882812 2.929688 -1.859375 2.921875 -1.828125 C 2.910156 -1.796875 2.890625 -1.769531 2.859375 -1.75 C 2.691406 -1.59375 2.5 -1.46875 2.28125 -1.375 C 1.914062 -1.207031 1.535156 -1.101562 1.140625 -1.0625 C 0.828125 -1.03125 0.523438 -1.078125 0.234375 -1.203125 C 0.128906 -1.253906 0.0507812 -1.234375 0 -1.140625 C -0.0625 -0.992188 -0.132812 -0.851562 -0.21875 -0.71875 C -0.25 -0.644531 -0.289062 -0.566406 -0.34375 -0.484375 C -0.34375 -0.472656 -0.347656 -0.460938 -0.359375 -0.453125 C -0.367188 -0.421875 -0.378906 -0.390625 -0.390625 -0.359375 C -0.410156 -0.335938 -0.441406 -0.320312 -0.484375 -0.3125 C -0.503906 -0.3125 -0.523438 -0.3125 -0.546875 -0.3125 C -0.566406 -0.3125 -0.585938 -0.316406 -0.609375 -0.328125 C -0.628906 -0.335938 -0.644531 -0.351562 -0.65625 -0.375 C -0.664062 -0.394531 -0.671875 -0.414062 -0.671875 -0.4375 C -0.648438 -0.507812 -0.625 -0.582031 -0.59375 -0.65625 C -0.519531 -0.8125 -0.453125 -0.96875 -0.390625 -1.125 C -0.210938 -1.519531 -0.03125 -1.910156 0.15625 -2.296875 C 0.664062 -3.359375 1.15625 -4.429688 1.625 -5.515625 C 1.664062 -5.617188 1.71875 -5.710938 1.78125 -5.796875 C 1.832031 -5.847656 1.898438 -5.863281 1.984375 -5.84375 C 2.078125 -5.800781 2.101562 -5.738281 2.0625 -5.65625 C 2.007812 -5.46875 1.945312 -5.28125 1.875 -5.09375 C 1.53125 -4.238281 1.148438 -3.394531 0.734375 -2.5625 C 0.648438 -2.382812 0.617188 -2.273438 0.640625 -2.234375 C 0.660156 -2.191406 0.71875 -2.1875 0.8125 -2.21875 C 0.90625 -2.257812 1.015625 -2.3125 1.140625 -2.375 C 1.222656 -2.425781 1.3125 -2.472656 1.40625 -2.515625 C 1.414062 -2.523438 1.429688 -2.53125 1.453125 -2.53125 C 1.554688 -2.59375 1.671875 -2.628906 1.796875 -2.640625 C 1.835938 -2.640625 1.867188 -2.613281 1.890625 -2.5625 C 1.910156 -2.539062 1.910156 -2.519531 1.890625 -2.5 C 1.878906 -2.476562 1.867188 -2.460938 1.859375 -2.453125 C 1.671875 -2.335938 1.476562 -2.234375 1.28125 -2.140625 C 1.1875 -2.097656 1.09375 -2.050781 1 -2 C 0.894531 -1.957031 0.796875 -1.910156 0.703125 -1.859375 C 0.640625 -1.816406 0.582031 -1.773438 0.53125 -1.734375 C 0.40625 -1.597656 0.414062 -1.484375 0.5625 -1.390625 C 0.695312 -1.335938 0.828125 -1.3125 0.953125 -1.3125 C 1.078125 -1.3125 1.207031 -1.328125 1.34375 -1.359375 C 1.726562 -1.441406 2.097656 -1.582031 2.453125 -1.78125 C 2.472656 -1.800781 2.5 -1.816406 2.53125 -1.828125 C 2.59375 -1.867188 2.660156 -1.90625 2.734375 -1.9375 C 2.765625 -1.945312 2.796875 -1.953125 2.828125 -1.953125 C 2.859375 -1.953125 2.882812 -1.9375 2.90625 -1.90625 Z M 2.90625 -1.90625 "/></g></g></g><g fill="rgb(0%, 0%, 0%)" fill-opacity="1"><g transform="translate(36.067989, 67.239411)"><g/></g></g><g fill="rgb(95.689392%, 58.81958%, 9.799194%)" fill-opacity="1"><g transform="translate(38.899864, 67.239411)"><g><path d="M 20.25 -3.421875 C 19.769531 -3.472656 19.289062 -3.5 18.8125 -3.5 C 18.59375 -3.507812 18.375 -3.519531 18.15625 -3.53125 C 16.15625 -3.613281 14.148438 -3.632812 12.140625 -3.59375 C 12.035156 -3.59375 11.953125 -3.59375 11.890625 -3.59375 C 11.785156 -3.59375 11.707031 -3.585938 11.65625 -3.578125 C 11.601562 -3.578125 11.5625 -3.550781 11.53125 -3.5 C 11.5 -3.457031 11.460938 -3.382812 11.421875 -3.28125 C 11.398438 -3.21875 11.367188 -3.140625 11.328125 -3.046875 C 10.992188 -2.316406 10.6875 -1.578125 10.40625 -0.828125 C 10.226562 -0.335938 10.085938 0.160156 9.984375 0.671875 C 9.953125 0.828125 9.941406 0.976562 9.953125 1.125 C 9.960938 1.28125 10.03125 1.421875 10.15625 1.546875 C 10.164062 1.554688 10.164062 1.570312 10.15625 1.59375 C 10.15625 1.613281 10.144531 1.628906 10.125 1.640625 C 10.113281 1.660156 10.097656 1.671875 10.078125 1.671875 C 9.785156 1.710938 9.609375 1.609375 9.546875 1.359375 C 9.515625 1.210938 9.507812 1.0625 9.53125 0.90625 C 9.53125 0.894531 9.53125 0.890625 9.53125 0.890625 C 9.550781 0.617188 9.59375 0.351562 9.65625 0.09375 C 9.726562 -0.15625 9.8125 -0.410156 9.90625 -0.671875 C 10.1875 -1.453125 10.5 -2.222656 10.84375 -2.984375 C 10.851562 -3.015625 10.863281 -3.046875 10.875 -3.078125 C 10.894531 -3.117188 10.914062 -3.160156 10.9375 -3.203125 C 10.957031 -3.253906 10.976562 -3.304688 11 -3.359375 C 11.03125 -3.410156 11.039062 -3.46875 11.03125 -3.53125 C 11.007812 -3.550781 10.984375 -3.5625 10.953125 -3.5625 C 10.921875 -3.570312 10.894531 -3.578125 10.875 -3.578125 C 10.863281 -3.578125 10.859375 -3.578125 10.859375 -3.578125 C 10.617188 -3.578125 10.378906 -3.570312 10.140625 -3.5625 C 10.078125 -3.5625 10.007812 -3.5625 9.9375 -3.5625 C 9.851562 -3.5625 9.78125 -3.535156 9.71875 -3.484375 C 9.65625 -3.429688 9.597656 -3.367188 9.546875 -3.296875 C 9.472656 -3.203125 9.398438 -3.109375 9.328125 -3.015625 C 9.015625 -2.628906 8.707031 -2.242188 8.40625 -1.859375 C 7.9375 -1.296875 7.453125 -0.753906 6.953125 -0.234375 C 6.453125 0.285156 5.914062 0.769531 5.34375 1.21875 C 4.632812 1.800781 3.882812 2.316406 3.09375 2.765625 C 1.875 3.421875 0.597656 3.726562 -0.734375 3.6875 C -1.992188 3.664062 -3.128906 3.328125 -4.140625 2.671875 C -4.429688 2.492188 -4.6875 2.273438 -4.90625 2.015625 C -5.050781 1.828125 -5.164062 1.628906 -5.25 1.421875 C -5.34375 1.210938 -5.390625 0.984375 -5.390625 0.734375 C -5.367188 0.441406 -5.296875 0.171875 -5.171875 -0.078125 C -5.054688 -0.335938 -4.882812 -0.570312 -4.65625 -0.78125 C -4.351562 -1.070312 -4.023438 -1.316406 -3.671875 -1.515625 C -3.316406 -1.722656 -2.953125 -1.898438 -2.578125 -2.046875 C -2.203125 -2.203125 -1.828125 -2.34375 -1.453125 -2.46875 C -0.835938 -2.664062 -0.21875 -2.832031 0.40625 -2.96875 C 1.039062 -3.101562 1.671875 -3.21875 2.296875 -3.3125 C 3.796875 -3.519531 5.300781 -3.65625 6.8125 -3.71875 C 7.570312 -3.769531 8.335938 -3.796875 9.109375 -3.796875 C 9.316406 -3.785156 9.476562 -3.875 9.59375 -4.0625 C 9.789062 -4.34375 9.992188 -4.628906 10.203125 -4.921875 C 10.523438 -5.359375 10.835938 -5.804688 11.140625 -6.265625 C 12.566406 -8.390625 13.9375 -10.554688 15.25 -12.765625 C 15.351562 -12.953125 15.457031 -13.140625 15.5625 -13.328125 C 15.613281 -13.429688 15.664062 -13.53125 15.71875 -13.625 C 15.789062 -13.75 15.894531 -13.820312 16.03125 -13.84375 C 16.113281 -13.84375 16.171875 -13.816406 16.203125 -13.765625 C 16.242188 -13.722656 16.25 -13.671875 16.21875 -13.609375 C 16.1875 -13.546875 16.15625 -13.484375 16.125 -13.421875 C 15.914062 -13.046875 15.726562 -12.664062 15.5625 -12.28125 C 15.5 -12.132812 15.4375 -12 15.375 -11.875 C 14.800781 -10.625 14.222656 -9.367188 13.640625 -8.109375 C 13.191406 -7.148438 12.742188 -6.179688 12.296875 -5.203125 C 12.160156 -4.921875 12.03125 -4.632812 11.90625 -4.34375 C 11.882812 -4.289062 11.859375 -4.234375 11.828125 -4.171875 C 11.816406 -4.160156 11.8125 -4.148438 11.8125 -4.140625 C 11.789062 -4.097656 11.773438 -4.054688 11.765625 -4.015625 C 11.753906 -3.972656 11.757812 -3.9375 11.78125 -3.90625 C 11.8125 -3.875 11.851562 -3.859375 11.90625 -3.859375 C 11.957031 -3.859375 12.003906 -3.859375 12.046875 -3.859375 C 12.078125 -3.859375 12.109375 -3.859375 12.140625 -3.859375 C 12.347656 -3.859375 12.554688 -3.859375 12.765625 -3.859375 C 13.046875 -3.859375 13.332031 -3.859375 13.625 -3.859375 C 15.1875 -3.828125 16.742188 -3.789062 18.296875 -3.75 C 18.816406 -3.738281 19.328125 -3.71875 19.828125 -3.6875 C 19.867188 -3.6875 19.914062 -3.6875 19.96875 -3.6875 C 20 -3.6875 20.03125 -3.6875 20.0625 -3.6875 C 20.125 -3.6875 20.1875 -3.679688 20.25 -3.671875 C 20.3125 -3.660156 20.367188 -3.632812 20.421875 -3.59375 C 20.429688 -3.59375 20.4375 -3.582031 20.4375 -3.5625 C 20.445312 -3.550781 20.453125 -3.539062 20.453125 -3.53125 C 20.453125 -3.507812 20.441406 -3.488281 20.421875 -3.46875 C 20.410156 -3.457031 20.398438 -3.453125 20.390625 -3.453125 C 20.347656 -3.429688 20.300781 -3.421875 20.25 -3.421875 Z M 9.078125 -3.375 C 9.097656 -3.414062 9.097656 -3.445312 9.078125 -3.46875 C 9.066406 -3.5 9.046875 -3.515625 9.015625 -3.515625 C 8.960938 -3.523438 8.910156 -3.523438 8.859375 -3.515625 C 8.828125 -3.515625 8.800781 -3.515625 8.78125 -3.515625 C 6.894531 -3.492188 5.003906 -3.363281 3.109375 -3.125 C 2.390625 -3.039062 1.671875 -2.925781 0.953125 -2.78125 C 0.242188 -2.632812 -0.457031 -2.457031 -1.15625 -2.25 C -1.53125 -2.132812 -1.898438 -2 -2.265625 -1.84375 C -2.628906 -1.695312 -2.988281 -1.523438 -3.34375 -1.328125 C -3.695312 -1.117188 -4.023438 -0.867188 -4.328125 -0.578125 C -4.671875 -0.222656 -4.863281 0.15625 -4.90625 0.5625 C -4.957031 0.96875 -4.851562 1.359375 -4.59375 1.734375 C -4.394531 1.992188 -4.164062 2.21875 -3.90625 2.40625 C -2.925781 3.09375 -1.765625 3.441406 -0.421875 3.453125 C -0.078125 3.453125 0.316406 3.410156 0.765625 3.328125 C 1.210938 3.234375 1.640625 3.097656 2.046875 2.921875 C 2.460938 2.742188 2.867188 2.53125 3.265625 2.28125 C 4.222656 1.6875 5.113281 1 5.9375 0.21875 C 6.5 -0.3125 7.03125 -0.867188 7.53125 -1.453125 C 8.039062 -2.046875 8.53125 -2.648438 9 -3.265625 C 9.03125 -3.304688 9.054688 -3.34375 9.078125 -3.375 Z M 11.375 -4.15625 C 11.738281 -4.976562 12.113281 -5.800781 12.5 -6.625 C 12.507812 -6.664062 12.5625 -6.789062 12.65625 -7 C 12.757812 -7.21875 12.875 -7.46875 13 -7.75 C 13.132812 -8.039062 13.253906 -8.3125 13.359375 -8.5625 C 13.460938 -8.8125 13.535156 -9 13.578125 -9.125 C 13.628906 -9.25 13.617188 -9.257812 13.546875 -9.15625 C 13.523438 -9.132812 13.515625 -9.113281 13.515625 -9.09375 C 13.453125 -9.007812 13.390625 -8.921875 13.328125 -8.828125 C 12.878906 -8.117188 12.421875 -7.410156 11.953125 -6.703125 C 11.492188 -6.003906 11.015625 -5.3125 10.515625 -4.625 C 10.472656 -4.550781 10.425781 -4.476562 10.375 -4.40625 C 10.28125 -4.28125 10.1875 -4.148438 10.09375 -4.015625 C 10.0625 -3.960938 10.050781 -3.914062 10.0625 -3.875 C 10.082031 -3.84375 10.117188 -3.828125 10.171875 -3.828125 C 10.273438 -3.828125 10.375 -3.832031 10.46875 -3.84375 C 10.625 -3.851562 10.78125 -3.859375 10.9375 -3.859375 C 11.050781 -3.847656 11.140625 -3.867188 11.203125 -3.921875 C 11.273438 -3.984375 11.332031 -4.0625 11.375 -4.15625 Z M 11.375 -4.15625 "/></g></g></g><g fill="rgb(95.689392%, 58.81958%, 9.799194%)" fill-opacity="1"><g transform="translate(50.786078, 67.239411)"><g><path d="M 1.8125 -1.90625 C 1.414062 -1.75 1.128906 -1.628906 0.953125 -1.546875 C 0.828125 -1.484375 0.753906 -1.429688 0.734375 -1.390625 C 0.722656 -1.347656 0.738281 -1.269531 0.78125 -1.15625 C 0.78125 -1.15625 0.785156 -1.148438 0.796875 -1.140625 C 0.847656 -1.003906 0.878906 -0.863281 0.890625 -0.71875 C 0.910156 -0.4375 0.664062 -0.238281 0.15625 -0.125 C -0.34375 -0.0078125 -0.675781 -0.00390625 -0.84375 -0.109375 C -1.019531 -0.210938 -1.070312 -0.347656 -1 -0.515625 C -0.9375 -0.679688 -0.765625 -0.847656 -0.484375 -1.015625 C -0.210938 -1.191406 -0.03125 -1.316406 0.0625 -1.390625 C 0.15625 -1.460938 0.179688 -1.546875 0.140625 -1.640625 C 0.128906 -1.671875 0.113281 -1.703125 0.09375 -1.734375 C 0.0625 -1.804688 0.03125 -1.882812 0 -1.96875 C -0.0625 -2.125 -0.0859375 -2.273438 -0.078125 -2.421875 C -0.078125 -2.566406 -0.03125 -2.6875 0.0625 -2.78125 C 0.164062 -2.875 0.320312 -2.925781 0.53125 -2.9375 C 0.65625 -2.945312 0.757812 -2.929688 0.84375 -2.890625 C 0.9375 -2.859375 1.015625 -2.789062 1.078125 -2.6875 C 1.117188 -2.625 1.101562 -2.566406 1.03125 -2.515625 C 0.976562 -2.472656 0.925781 -2.46875 0.875 -2.5 C 0.84375 -2.507812 0.8125 -2.53125 0.78125 -2.5625 C 0.757812 -2.570312 0.742188 -2.582031 0.734375 -2.59375 C 0.722656 -2.625 0.707031 -2.644531 0.6875 -2.65625 C 0.625 -2.695312 0.554688 -2.707031 0.484375 -2.6875 C 0.421875 -2.675781 0.375 -2.628906 0.34375 -2.546875 C 0.320312 -2.484375 0.3125 -2.414062 0.3125 -2.34375 C 0.3125 -2.257812 0.328125 -2.179688 0.359375 -2.109375 C 0.378906 -2.054688 0.398438 -2.007812 0.421875 -1.96875 C 0.460938 -1.863281 0.492188 -1.789062 0.515625 -1.75 C 0.546875 -1.707031 0.582031 -1.6875 0.625 -1.6875 C 0.664062 -1.695312 1.019531 -1.828125 1.6875 -2.078125 C 1.832031 -2.117188 1.875 -2.0625 1.8125 -1.90625 Z M 0.1875 -0.46875 C 0.363281 -0.53125 0.4375 -0.648438 0.40625 -0.828125 C 0.40625 -0.835938 0.40625 -0.847656 0.40625 -0.859375 C 0.394531 -0.953125 0.375 -1.023438 0.34375 -1.078125 C 0.3125 -1.128906 0.242188 -1.128906 0.140625 -1.078125 C -0.117188 -0.929688 -0.359375 -0.757812 -0.578125 -0.5625 C -0.585938 -0.539062 -0.601562 -0.523438 -0.625 -0.515625 C -0.625 -0.515625 -0.625 -0.507812 -0.625 -0.5 C -0.632812 -0.476562 -0.632812 -0.453125 -0.625 -0.421875 C -0.625 -0.398438 -0.601562 -0.390625 -0.5625 -0.390625 C -0.3125 -0.347656 -0.0625 -0.375 0.1875 -0.46875 Z M 0.1875 -0.46875 "/></g></g></g><g fill="rgb(95.689392%, 58.81958%, 9.799194%)" fill-opacity="1"><g transform="translate(52.44715, 67.239411)"><g><path d="M 1.8125 -1.90625 C 1.414062 -1.75 1.128906 -1.628906 0.953125 -1.546875 C 0.828125 -1.484375 0.753906 -1.429688 0.734375 -1.390625 C 0.722656 -1.347656 0.738281 -1.269531 0.78125 -1.15625 C 0.78125 -1.15625 0.785156 -1.148438 0.796875 -1.140625 C 0.847656 -1.003906 0.878906 -0.863281 0.890625 -0.71875 C 0.910156 -0.4375 0.664062 -0.238281 0.15625 -0.125 C -0.34375 -0.0078125 -0.675781 -0.00390625 -0.84375 -0.109375 C -1.019531 -0.210938 -1.070312 -0.347656 -1 -0.515625 C -0.9375 -0.679688 -0.765625 -0.847656 -0.484375 -1.015625 C -0.210938 -1.191406 -0.03125 -1.316406 0.0625 -1.390625 C 0.15625 -1.460938 0.179688 -1.546875 0.140625 -1.640625 C 0.128906 -1.671875 0.113281 -1.703125 0.09375 -1.734375 C 0.0625 -1.804688 0.03125 -1.882812 0 -1.96875 C -0.0625 -2.125 -0.0859375 -2.273438 -0.078125 -2.421875 C -0.078125 -2.566406 -0.03125 -2.6875 0.0625 -2.78125 C 0.164062 -2.875 0.320312 -2.925781 0.53125 -2.9375 C 0.65625 -2.945312 0.757812 -2.929688 0.84375 -2.890625 C 0.9375 -2.859375 1.015625 -2.789062 1.078125 -2.6875 C 1.117188 -2.625 1.101562 -2.566406 1.03125 -2.515625 C 0.976562 -2.472656 0.925781 -2.46875 0.875 -2.5 C 0.84375 -2.507812 0.8125 -2.53125 0.78125 -2.5625 C 0.757812 -2.570312 0.742188 -2.582031 0.734375 -2.59375 C 0.722656 -2.625 0.707031 -2.644531 0.6875 -2.65625 C 0.625 -2.695312 0.554688 -2.707031 0.484375 -2.6875 C 0.421875 -2.675781 0.375 -2.628906 0.34375 -2.546875 C 0.320312 -2.484375 0.3125 -2.414062 0.3125 -2.34375 C 0.3125 -2.257812 0.328125 -2.179688 0.359375 -2.109375 C 0.378906 -2.054688 0.398438 -2.007812 0.421875 -1.96875 C 0.460938 -1.863281 0.492188 -1.789062 0.515625 -1.75 C 0.546875 -1.707031 0.582031 -1.6875 0.625 -1.6875 C 0.664062 -1.695312 1.019531 -1.828125 1.6875 -2.078125 C 1.832031 -2.117188 1.875 -2.0625 1.8125 -1.90625 Z M 0.1875 -0.46875 C 0.363281 -0.53125 0.4375 -0.648438 0.40625 -0.828125 C 0.40625 -0.835938 0.40625 -0.847656 0.40625 -0.859375 C 0.394531 -0.953125 0.375 -1.023438 0.34375 -1.078125 C 0.3125 -1.128906 0.242188 -1.128906 0.140625 -1.078125 C -0.117188 -0.929688 -0.359375 -0.757812 -0.578125 -0.5625 C -0.585938 -0.539062 -0.601562 -0.523438 -0.625 -0.515625 C -0.625 -0.515625 -0.625 -0.507812 -0.625 -0.5 C -0.632812 -0.476562 -0.632812 -0.453125 -0.625 -0.421875 C -0.625 -0.398438 -0.601562 -0.390625 -0.5625 -0.390625 C -0.3125 -0.347656 -0.0625 -0.375 0.1875 -0.46875 Z M 0.1875 -0.46875 "/></g></g></g><g fill="rgb(95.689392%, 58.81958%, 9.799194%)" fill-opacity="1"><g transform="translate(54.108222, 67.239411)"><g><path d="M 2.34375 -1.8125 C 2.007812 -1.414062 1.679688 -1.125 1.359375 -0.9375 C 1.035156 -0.75 0.691406 -0.6875 0.328125 -0.75 C -0.0351562 -0.8125 -0.1875 -1.054688 -0.125 -1.484375 C -0.0820312 -1.703125 -0.0195312 -1.910156 0.0625 -2.109375 C 0.25 -2.585938 0.441406 -3.066406 0.640625 -3.546875 C 0.703125 -3.710938 0.769531 -3.878906 0.84375 -4.046875 C 0.863281 -4.085938 0.882812 -4.128906 0.90625 -4.171875 C 0.925781 -4.234375 0.953125 -4.296875 0.984375 -4.359375 C 1.023438 -4.460938 0.976562 -4.519531 0.84375 -4.53125 C 0.769531 -4.53125 0.703125 -4.53125 0.640625 -4.53125 C 0.609375 -4.53125 0.570312 -4.53125 0.53125 -4.53125 C 0.488281 -4.519531 0.445312 -4.515625 0.40625 -4.515625 C 0.34375 -4.503906 0.28125 -4.5 0.21875 -4.5 C 0.15625 -4.5 0.0976562 -4.519531 0.046875 -4.5625 C 0.0234375 -4.5625 0.0078125 -4.566406 0 -4.578125 C 0 -4.597656 0 -4.613281 0 -4.625 C 0 -4.632812 0.00390625 -4.644531 0.015625 -4.65625 C 0.0234375 -4.675781 0.0390625 -4.6875 0.0625 -4.6875 C 0.113281 -4.71875 0.171875 -4.738281 0.234375 -4.75 C 0.390625 -4.75 0.539062 -4.753906 0.6875 -4.765625 C 0.75 -4.765625 0.800781 -4.765625 0.84375 -4.765625 C 0.945312 -4.765625 1.019531 -4.765625 1.0625 -4.765625 C 1.113281 -4.773438 1.15625 -4.800781 1.1875 -4.84375 C 1.21875 -4.894531 1.253906 -4.96875 1.296875 -5.0625 C 1.316406 -5.101562 1.34375 -5.15625 1.375 -5.21875 C 1.457031 -5.394531 1.539062 -5.570312 1.625 -5.75 C 1.664062 -5.832031 1.703125 -5.914062 1.734375 -6 C 1.773438 -6.070312 1.828125 -6.128906 1.890625 -6.171875 C 1.960938 -6.203125 2.023438 -6.203125 2.078125 -6.171875 C 2.085938 -6.160156 2.097656 -6.144531 2.109375 -6.125 C 2.117188 -6.101562 2.125 -6.082031 2.125 -6.0625 C 2.125 -5.96875 2.097656 -5.867188 2.046875 -5.765625 C 2.035156 -5.753906 2.023438 -5.734375 2.015625 -5.703125 C 1.984375 -5.609375 1.945312 -5.515625 1.90625 -5.421875 C 1.832031 -5.253906 1.765625 -5.082031 1.703125 -4.90625 C 1.679688 -4.875 1.675781 -4.84375 1.6875 -4.8125 C 1.707031 -4.789062 1.734375 -4.78125 1.765625 -4.78125 C 1.941406 -4.78125 2.117188 -4.78125 2.296875 -4.78125 C 2.378906 -4.78125 2.46875 -4.78125 2.5625 -4.78125 C 2.832031 -4.769531 2.941406 -4.726562 2.890625 -4.65625 C 2.847656 -4.613281 2.804688 -4.585938 2.765625 -4.578125 C 2.722656 -4.578125 2.675781 -4.582031 2.625 -4.59375 C 2.601562 -4.59375 2.578125 -4.59375 2.546875 -4.59375 C 2.265625 -4.570312 1.988281 -4.5625 1.71875 -4.5625 C 1.59375 -4.5625 1.507812 -4.503906 1.46875 -4.390625 C 1.414062 -4.273438 1.367188 -4.160156 1.328125 -4.046875 C 1.265625 -3.910156 1.207031 -3.769531 1.15625 -3.625 C 1.101562 -3.5 1.046875 -3.367188 0.984375 -3.234375 C 0.847656 -2.898438 0.710938 -2.566406 0.578125 -2.234375 C 0.492188 -2.015625 0.425781 -1.785156 0.375 -1.546875 C 0.269531 -1.128906 0.429688 -0.972656 0.859375 -1.078125 C 1.285156 -1.171875 1.726562 -1.472656 2.1875 -1.984375 C 2.382812 -2.109375 2.4375 -2.050781 2.34375 -1.8125 Z M 2.34375 -1.8125 "/></g></g></g><g clip-path="url(#id3)"><path fill="rgb(29.798889%, 43.919373%, 19.219971%)" d="M 47.851562 34.816406 C 39.34375 33.617188 32.605469 31.527344 27.660156 40.160156 C 36.960938 33.144531 45.78125 37.523438 49.578125 38.984375 C 50.464844 35.019531 52.007812 26.078125 47.378906 23.972656 C 49.300781 26.726562 48.835938 31.390625 47.851562 34.816406 Z M 47.851562 34.816406 " fill-opacity="1" fill-rule="evenodd"/></g><path fill="rgb(95.689392%, 58.81958%, 9.799194%)" d="M 28.238281 22.667969 C 34.507812 21.359375 41.164062 27.457031 46.207031 23.011719 C 41.027344 24.988281 24.039062 11.117188 22.582031 25.765625 C 23.46875 24.707031 24.507812 24.003906 25.6875 23.605469 C 28.855469 31.832031 28.71875 35.710938 27.894531 37.996094 C 30.878906 33.78125 28.9375 27.433594 28.238281 22.667969 Z M 28.238281 22.667969 " fill-opacity="1" fill-rule="evenodd"/><g clip-path="url(#id4)"><path fill="rgb(29.798889%, 43.919373%, 19.219971%)" d="M 36.023438 12.179688 C 39.804688 14.367188 43.789062 16.988281 47.050781 19.636719 C 46.015625 17.441406 45.046875 16.792969 43.917969 15.652344 C 52.738281 11.058594 63.355469 22.722656 52.496094 28.066406 C 58.25 27.558594 61.058594 23.472656 59.769531 18.289062 C 58.023438 11.253906 49.25 9.625 42.382812 14.167969 C 22.941406 -5.429688 3.25 23.589844 23.867188 30.722656 C 22.664062 29.425781 20.609375 28 19.816406 26.984375 C 12.695312 17.898438 24.675781 5.625 36.019531 12.179688 Z M 36.023438 12.179688 " fill-opacity="1" fill-rule="evenodd"/></g><path fill="rgb(29.798889%, 43.919373%, 19.219971%)" d="M 33.210938 40.683594 C 32.027344 40.683594 31.070312 41.640625 31.070312 42.824219 C 31.070312 44.007812 32.027344 44.96875 33.210938 44.96875 C 34.394531 44.96875 35.355469 44.007812 35.355469 42.824219 C 35.355469 41.640625 34.394531 40.683594 33.210938 40.683594 " fill-opacity="1" fill-rule="nonzero"/><path fill="rgb(29.798889%, 43.919373%, 19.219971%)" d="M 44.125 40.683594 C 42.941406 40.683594 41.980469 41.640625 41.980469 42.824219 C 41.980469 44.007812 42.941406 44.96875 44.125 44.96875 C 45.304688 44.96875 46.265625 44.007812 46.265625 42.824219 C 46.265625 41.640625 45.304688 40.683594 44.125 40.683594 " fill-opacity="1" fill-rule="nonzero"/><g clip-path="url(#id5)"><path fill="rgb(29.798889%, 43.919373%, 19.219971%)" d="M 36.28125 48 C 36 48.007812 35.699219 48.039062 35.371094 48.113281 C 32.753906 48.683594 31.820312 51.410156 30.136719 52.507812 C 28.457031 53.605469 26.746094 53.078125 26.492188 52.601562 C 26.238281 52.125 26.304688 51.601562 26.726562 51.3125 C 27.414062 50.84375 27.472656 51.839844 27.472656 51.839844 C 27.472656 51.839844 27.617188 50.179688 26.210938 50.976562 C 25.371094 51.457031 25.390625 53.3125 26.820312 54.371094 C 28.613281 55.699219 31.148438 55.40625 33.269531 54.992188 C 35.210938 54.609375 37.53125 53.40625 38.550781 52.21875 C 38.628906 52.128906 38.695312 52.035156 38.753906 51.9375 C 38.8125 52.035156 38.878906 52.128906 38.957031 52.21875 C 39.972656 53.40625 42.296875 54.609375 44.238281 54.992188 C 46.359375 55.40625 48.890625 55.699219 50.6875 54.371094 C 52.113281 53.3125 52.136719 51.457031 51.292969 50.976562 C 49.890625 50.179688 50.035156 51.839844 50.035156 51.839844 C 50.035156 51.839844 50.089844 50.84375 50.78125 51.3125 C 51.199219 51.601562 51.269531 52.125 51.015625 52.601562 C 50.757812 53.078125 49.050781 53.605469 47.367188 52.507812 C 45.6875 51.410156 44.753906 48.683594 42.136719 48.113281 C 40.285156 47.707031 39.230469 48.5 38.753906 49.164062 C 38.359375 48.617188 37.578125 47.980469 36.28125 48 Z M 36.28125 48 " fill-opacity="1" fill-rule="nonzero"/></g><g clip-path="url(#id6)"><path stroke-linecap="butt" transform="matrix(0.023114, 0, 0, 0.0236282, 27.526056, 37.079165)" fill="none" stroke-linejoin="miter" d="M 378.782376 462.194112 C 366.614451 462.524754 353.601532 463.847324 339.40562 466.988427 C 226.176322 491.125324 185.785573 606.51953 112.947024 652.974791 C 40.277475 699.430052 -33.744066 677.111688 -44.728998 656.9425 C -55.71393 636.773312 -52.840947 614.62027 -34.589061 602.3865 C -4.845245 582.547954 -2.310261 624.704864 -2.310261 624.704864 C -2.310261 624.704864 3.9427 554.443348 -56.896922 588.168876 C -93.231697 608.503385 -92.386702 687.030961 -30.533086 731.833009 C 47.037433 788.042222 156.717753 775.643131 248.484184 758.119082 C 332.476663 741.917603 432.86204 690.99867 476.970767 640.741021 C 480.350746 636.938633 483.223728 632.970924 485.758712 628.837894 C 488.293697 632.970924 491.166679 636.938633 494.546658 640.741021 C 538.486385 690.99867 639.040762 741.917603 723.033241 758.119082 C 814.799672 775.643131 924.310992 788.042222 1002.05051 731.833009 C 1063.735128 687.030961 1064.749121 608.503385 1028.245348 588.168876 C 967.574724 554.443348 973.827685 624.704864 973.827685 624.704864 C 973.827685 624.704864 976.193671 582.547954 1006.106485 602.3865 C 1024.189373 614.62027 1027.231354 636.773312 1016.246422 656.9425 C 1005.092491 677.111688 931.239949 699.430052 858.401401 652.974791 C 785.731852 606.51953 745.341102 491.125324 632.111805 466.988427 C 552.006301 449.795021 506.376584 483.355227 485.758712 511.459833 C 468.689818 488.314863 434.890028 461.367506 378.782376 462.194112 Z M 378.782376 462.194112 " stroke="rgb(0%, 0%, 0%)" stroke-width="1.662" stroke-opacity="1" stroke-miterlimit="4"/></g><g fill="rgb(95.689392%, 58.81958%, 9.799194%)" fill-opacity="1"><g transform="translate(29.768554, 24.234672)"><g><path d="M 4.328125 -0.53125 L 4.359375 -0.296875 C 3.898438 0.265625 3.347656 0.863281 2.703125 1.5 C 2.054688 2.132812 1.4375 2.710938 0.84375 3.234375 L -0.34375 2.6875 C 0.144531 2.0625 0.664062 1.378906 1.21875 0.640625 C 1.78125 -0.0859375 2.242188 -0.742188 2.609375 -1.328125 Z M 4.328125 -0.53125 "/></g></g></g></svg>