<svg xmlns="http://www.w3.org/2000/svg" xmlns:xlink="http://www.w3.org/1999/xlink" width="545" zoomAndPan="magnify" viewBox="0 0 408.75 273.749983" height="365" preserveAspectRatio="xMidYMid meet" version="1.0"><defs><g><g id="id1"/><g id="id2"/></g><clipPath id="id3"><path d="M 67 94 L 129 94 L 129 138.347656 L 67 138.347656 Z M 67 94 " clip-rule="nonzero"/></clipPath><clipPath id="id4"><path d="M 33.203125 50.203125 L 154.582031 50.203125 L 154.582031 113 L 33.203125 113 Z M 33.203125 50.203125 " clip-rule="nonzero"/></clipPath><clipPath id="id5"><path d="M 61 158.644531 L 133 158.644531 L 133 180 L 61 180 Z M 61 158.644531 " clip-rule="nonzero"/></clipPath></defs><g clip-path="url(#id3)"><path fill="rgb(29.798889%, 43.919373%, 19.219971%)" d="M 121.570312 123.925781 C 98.625 120.691406 80.453125 115.054688 67.113281 138.34375 C 92.195312 119.421875 115.980469 131.234375 126.230469 135.175781 C 128.625 124.472656 132.785156 100.363281 120.296875 94.683594 C 125.480469 102.109375 124.230469 114.6875 121.570312 123.925781 Z M 121.570312 123.925781 " fill-opacity="1" fill-rule="evenodd"/></g><path fill="rgb(95.689392%, 58.81958%, 9.799194%)" d="M 68.675781 91.164062 C 85.582031 87.636719 103.53125 104.085938 117.132812 92.085938 C 103.171875 97.421875 57.339844 60.003906 53.414062 99.515625 C 55.800781 96.667969 58.613281 94.765625 61.789062 93.6875 C 70.332031 115.886719 69.96875 126.335938 67.742188 132.511719 C 75.796875 121.136719 70.550781 104.015625 68.675781 91.164062 Z M 68.675781 91.164062 " fill-opacity="1" fill-rule="evenodd"/><g clip-path="url(#id4)"><path fill="rgb(29.798889%, 43.919373%, 19.219971%)" d="M 89.664062 62.875 C 99.871094 68.769531 110.617188 75.839844 119.410156 82.988281 C 116.617188 77.066406 114.003906 75.3125 110.964844 72.242188 C 134.753906 59.851562 163.386719 91.304688 134.09375 105.722656 C 149.617188 104.351562 157.191406 93.335938 153.71875 79.355469 C 149.011719 60.382812 125.34375 55.988281 106.820312 68.234375 C 54.382812 15.378906 1.273438 93.652344 56.878906 112.886719 C 53.632812 109.386719 48.097656 105.546875 45.949219 102.808594 C 26.742188 78.300781 59.058594 45.199219 89.660156 62.875 Z M 89.664062 62.875 " fill-opacity="1" fill-rule="evenodd"/></g><path fill="rgb(29.798889%, 43.919373%, 19.219971%)" d="M 82.085938 139.753906 C 78.894531 139.753906 76.304688 142.339844 76.304688 145.53125 C 76.304688 148.726562 78.894531 151.3125 82.085938 151.3125 C 85.277344 151.3125 87.867188 148.726562 87.867188 145.53125 C 87.867188 142.339844 85.277344 139.753906 82.085938 139.753906 " fill-opacity="1" fill-rule="nonzero"/><path fill="rgb(29.798889%, 43.919373%, 19.219971%)" d="M 111.515625 139.753906 C 108.324219 139.753906 105.734375 142.339844 105.734375 145.53125 C 105.734375 148.726562 108.324219 151.3125 111.515625 151.3125 C 114.707031 151.3125 117.292969 148.726562 117.292969 145.53125 C 117.292969 142.339844 114.707031 139.753906 111.515625 139.753906 " fill-opacity="1" fill-rule="nonzero"/><path fill="rgb(29.798889%, 43.919373%, 19.219971%)" d="M 90.359375 159.492188 C 89.605469 159.503906 88.789062 159.597656 87.90625 159.792969 C 80.847656 161.339844 78.332031 168.683594 73.792969 171.648438 C 69.257812 174.609375 64.648438 173.1875 63.960938 171.902344 C 63.273438 170.617188 63.457031 169.199219 64.589844 168.425781 C 66.449219 167.160156 66.609375 169.84375 66.609375 169.84375 C 66.609375 169.84375 66.988281 165.371094 63.203125 167.523438 C 60.933594 168.8125 60.992188 173.816406 64.84375 176.667969 C 69.683594 180.257812 76.519531 179.46875 82.238281 178.34375 C 87.476562 177.3125 93.738281 174.074219 96.480469 170.871094 C 96.691406 170.625 96.875 170.367188 97.035156 170.105469 C 97.191406 170.367188 97.375 170.625 97.582031 170.871094 C 100.324219 174.074219 106.585938 177.3125 111.828125 178.34375 C 117.546875 179.46875 124.375 180.257812 129.21875 176.667969 C 133.066406 173.816406 133.125 168.8125 130.855469 167.523438 C 127.070312 165.371094 127.457031 169.84375 127.457031 169.84375 C 127.457031 169.84375 127.613281 167.160156 129.46875 168.425781 C 130.605469 169.199219 130.789062 170.617188 130.101562 171.902344 C 129.414062 173.1875 124.808594 174.609375 120.269531 171.648438 C 115.730469 168.683594 113.210938 161.335938 106.152344 159.789062 C 101.160156 158.695312 98.3125 160.835938 97.03125 162.632812 C 95.972656 161.152344 93.859375 159.441406 90.359375 159.492188 Z M 90.359375 159.492188 " fill-opacity="1" fill-rule="nonzero"/><g clip-path="url(#id5)"><path stroke-linecap="butt" transform="matrix(0.062344, 0, 0, 0.063731, 66.748532, 130.033148)" fill="none" stroke-linejoin="miter" d="M 378.718471 462.240637 C 366.625797 462.424516 353.530622 463.895543 339.370289 466.960184 C 226.150281 491.232139 185.799598 606.462634 112.99293 652.983881 C 40.248919 699.443836 -33.685563 677.133251 -44.713079 656.967914 C -55.740595 636.802578 -52.795747 614.553285 -34.625408 602.417308 C -4.80099 582.558435 -2.23208 624.6666 -2.23208 624.6666 C -2.23208 624.6666 3.845585 554.486326 -56.868409 588.258667 C -93.271743 608.485297 -92.331897 687.001394 -30.552746 731.74515 C 47.07846 788.073248 156.727056 775.692099 248.455939 758.039768 C 332.478091 741.858465 432.916205 691.04672 476.900956 640.786611 C 480.284398 636.925163 483.229246 632.879838 485.798156 628.773219 C 488.30441 632.879838 491.249258 636.925163 494.570044 640.786611 C 538.554795 691.04672 638.992909 741.858465 723.077718 758.039768 C 814.8066 775.692099 924.329884 788.073248 1002.023746 731.74515 C 1063.740241 687.001394 1064.680086 608.485297 1028.276753 588.258667 C 967.562759 554.486326 973.765736 624.6666 973.765736 624.6666 C 973.765736 624.6666 976.27199 582.558435 1006.033752 602.417308 C 1024.266747 614.553285 1027.211595 636.802578 1016.184079 656.967914 C 1005.156563 677.133251 931.284738 699.443836 858.47807 652.983881 C 785.671402 606.462634 745.258063 491.170846 632.038055 466.898891 C 551.963252 449.736903 506.28678 483.325366 485.7355 511.520061 C 468.755632 488.290084 434.858552 461.44383 378.718471 462.240637 Z M 378.718471 462.240637 " stroke="rgb(0%, 0%, 0%)" stroke-width="1.662" stroke-opacity="1" stroke-miterlimit="4"/></g><g fill="rgb(95.689392%, 58.81958%, 9.799194%)" fill-opacity="1"><g transform="translate(72.797077, 95.38851)"><g><path d="M 11.703125 -1.484375 L 11.796875 -0.78125 C 10.535156 0.738281 9.03125 2.351562 7.28125 4.0625 C 5.53125 5.769531 3.859375 7.320312 2.265625 8.71875 L -0.90625 7.25 C 0.394531 5.601562 1.796875 3.773438 3.296875 1.765625 C 4.804688 -0.234375 6.070312 -2.03125 7.09375 -3.625 Z M 11.703125 -1.484375 "/></g></g></g><g fill="rgb(29.798889%, 43.919373%, 19.219971%)" fill-opacity="1"><g transform="translate(144.747726, 157.508291)"><g><path d="M 67.171875 -28.046875 C 67.035156 -28.023438 66.890625 -28.023438 66.734375 -28.046875 C 66.578125 -28.066406 66.4375 -28.132812 66.3125 -28.25 C 66.15625 -28.40625 66.085938 -28.546875 66.109375 -28.671875 C 66.128906 -28.804688 66.179688 -28.925781 66.265625 -29.03125 C 67.523438 -31.0625 68.617188 -33.1875 69.546875 -35.40625 C 70.140625 -36.78125 70.65625 -38.191406 71.09375 -39.640625 C 71.382812 -40.546875 71.410156 -41.515625 71.171875 -42.546875 C 70.941406 -43.648438 70.28125 -44.429688 69.1875 -44.890625 C 68.34375 -45.203125 67.484375 -45.367188 66.609375 -45.390625 C 66.453125 -45.390625 66.296875 -45.390625 66.140625 -45.390625 C 64.296875 -45.316406 62.503906 -45.050781 60.765625 -44.59375 C 57.742188 -43.863281 54.820312 -42.953125 52 -41.859375 C 49.1875 -40.773438 46.4375 -39.59375 43.75 -38.3125 C 31.945312 -32.570312 21.378906 -25.316406 12.046875 -16.546875 C 9.691406 -14.441406 7.632812 -12.078125 5.875 -9.453125 C 5.257812 -8.523438 4.71875 -7.546875 4.25 -6.515625 C 3.988281 -5.941406 3.800781 -5.328125 3.6875 -4.671875 C 3.289062 -2.523438 4.21875 -0.925781 6.46875 0.125 C 8.363281 1 10.289062 1.492188 12.25 1.609375 C 13.78125 1.734375 15.273438 1.796875 16.734375 1.796875 C 17.421875 1.796875 18.082031 1.769531 18.71875 1.71875 C 27.957031 1.613281 36.6875 0.410156 44.90625 -1.890625 C 45.039062 -1.941406 45.171875 -1.976562 45.296875 -2 C 45.847656 -2.1875 46.429688 -2.335938 47.046875 -2.453125 C 47.203125 -2.472656 47.460938 -2.492188 47.828125 -2.515625 C 48.203125 -2.546875 48.550781 -2.523438 48.875 -2.453125 C 49.207031 -2.390625 49.414062 -2.238281 49.5 -2 C 49.519531 -1.863281 49.5 -1.765625 49.4375 -1.703125 C 49.375 -1.640625 49.273438 -1.59375 49.140625 -1.5625 C 48.640625 -1.4375 48.140625 -1.304688 47.640625 -1.171875 C 46.148438 -0.773438 44.664062 -0.390625 43.1875 -0.015625 C 34.875 2.117188 26.238281 3.15625 17.28125 3.09375 C 15.425781 3.09375 13.570312 3.054688 11.71875 2.984375 C 9.644531 2.898438 7.5625 2.460938 5.46875 1.671875 C 1.320312 0.0664062 -0.128906 -2.582031 1.109375 -6.28125 C 1.617188 -7.757812 2.335938 -9.125 3.265625 -10.375 C 4.546875 -12.226562 5.96875 -13.945312 7.53125 -15.53125 C 9.09375 -17.113281 10.71875 -18.644531 12.40625 -20.125 C 19.957031 -26.769531 28.269531 -32.484375 37.34375 -37.265625 C 40.113281 -38.722656 42.9375 -40.078125 45.8125 -41.328125 C 48.6875 -42.585938 51.65625 -43.695312 54.71875 -44.65625 C 57.289062 -45.46875 59.9375 -46.085938 62.65625 -46.515625 C 63.738281 -46.671875 64.820312 -46.75 65.90625 -46.75 C 66.613281 -46.75 67.328125 -46.722656 68.046875 -46.671875 C 68.890625 -46.585938 69.734375 -46.414062 70.578125 -46.15625 C 72.859375 -45.332031 74.019531 -43.820312 74.0625 -41.625 C 74.0625 -40.65625 73.929688 -39.71875 73.671875 -38.8125 C 73.117188 -37.070312 72.441406 -35.394531 71.640625 -33.78125 C 70.835938 -32.175781 69.972656 -30.609375 69.046875 -29.078125 C 68.773438 -28.546875 68.347656 -28.203125 67.765625 -28.046875 C 67.585938 -28.023438 67.421875 -28.023438 67.265625 -28.046875 Z M 67.171875 -28.046875 "/></g></g></g><g fill="rgb(29.798889%, 43.919373%, 19.219971%)" fill-opacity="1"><g transform="translate(196.056975, 157.508291)"><g><path d="M 2.859375 -4.265625 L 2.8125 -4.265625 C 1.070312 -4.296875 -0.0703125 -4.6875 -0.625 -5.4375 C -1.175781 -6.1875 -1.15625 -7.1875 -0.5625 -8.4375 C -0.0507812 -9.382812 0.582031 -10.210938 1.34375 -10.921875 C 1.613281 -11.160156 1.882812 -11.347656 2.15625 -11.484375 C 2.4375 -11.628906 2.75 -11.703125 3.09375 -11.703125 C 3.300781 -11.742188 3.535156 -11.707031 3.796875 -11.59375 C 3.878906 -11.570312 3.960938 -11.546875 4.046875 -11.515625 C 4.253906 -11.546875 4.453125 -11.609375 4.640625 -11.703125 C 4.691406 -11.742188 4.757812 -11.773438 4.84375 -11.796875 C 5.238281 -11.953125 5.660156 -12.019531 6.109375 -12 C 6.285156 -12 6.472656 -12 6.671875 -12 C 7.378906 -11.882812 7.910156 -11.582031 8.265625 -11.09375 C 8.628906 -10.613281 8.753906 -10.023438 8.640625 -9.328125 C 8.585938 -8.910156 8.457031 -8.515625 8.25 -8.140625 C 6.863281 -5.671875 5.101562 -4.378906 2.96875 -4.265625 Z M 5.703125 -10.71875 C 4.753906 -10.75 3.910156 -10.472656 3.171875 -9.890625 C 2.441406 -9.316406 1.894531 -8.648438 1.53125 -7.890625 C 1.164062 -7.128906 1.066406 -6.503906 1.234375 -6.015625 C 1.398438 -5.535156 1.898438 -5.40625 2.734375 -5.625 C 3.679688 -5.90625 4.519531 -6.441406 5.25 -7.234375 C 5.976562 -8.035156 6.421875 -8.789062 6.578125 -9.5 C 6.742188 -10.21875 6.453125 -10.625 5.703125 -10.71875 Z M 5.703125 -10.71875 "/></g></g></g><g fill="rgb(29.798889%, 43.919373%, 19.219971%)" fill-opacity="1"><g transform="translate(205.620061, 157.508291)"><g><path d="M 2.859375 -4.265625 L 2.8125 -4.265625 C 1.070312 -4.296875 -0.0703125 -4.6875 -0.625 -5.4375 C -1.175781 -6.1875 -1.15625 -7.1875 -0.5625 -8.4375 C -0.0507812 -9.382812 0.582031 -10.210938 1.34375 -10.921875 C 1.613281 -11.160156 1.882812 -11.347656 2.15625 -11.484375 C 2.4375 -11.628906 2.75 -11.703125 3.09375 -11.703125 C 3.300781 -11.742188 3.535156 -11.707031 3.796875 -11.59375 C 3.878906 -11.570312 3.960938 -11.546875 4.046875 -11.515625 C 4.253906 -11.546875 4.453125 -11.609375 4.640625 -11.703125 C 4.691406 -11.742188 4.757812 -11.773438 4.84375 -11.796875 C 5.238281 -11.953125 5.660156 -12.019531 6.109375 -12 C 6.285156 -12 6.472656 -12 6.671875 -12 C 7.378906 -11.882812 7.910156 -11.582031 8.265625 -11.09375 C 8.628906 -10.613281 8.753906 -10.023438 8.640625 -9.328125 C 8.585938 -8.910156 8.457031 -8.515625 8.25 -8.140625 C 6.863281 -5.671875 5.101562 -4.378906 2.96875 -4.265625 Z M 5.703125 -10.71875 C 4.753906 -10.75 3.910156 -10.472656 3.171875 -9.890625 C 2.441406 -9.316406 1.894531 -8.648438 1.53125 -7.890625 C 1.164062 -7.128906 1.066406 -6.503906 1.234375 -6.015625 C 1.398438 -5.535156 1.898438 -5.40625 2.734375 -5.625 C 3.679688 -5.90625 4.519531 -6.441406 5.25 -7.234375 C 5.976562 -8.035156 6.421875 -8.789062 6.578125 -9.5 C 6.742188 -10.21875 6.453125 -10.625 5.703125 -10.71875 Z M 5.703125 -10.71875 "/></g></g></g><g fill="rgb(29.798889%, 43.919373%, 19.219971%)" fill-opacity="1"><g transform="translate(215.183147, 157.508291)"><g><path d="M 13.953125 -9.1875 C 14.054688 -9.050781 14.082031 -8.914062 14.03125 -8.78125 C 13.976562 -8.65625 13.890625 -8.539062 13.765625 -8.4375 C 12.929688 -7.6875 12.003906 -7.085938 10.984375 -6.640625 C 9.234375 -5.828125 7.394531 -5.328125 5.46875 -5.140625 C 3.957031 -4.984375 2.519531 -5.207031 1.15625 -5.8125 C 0.644531 -6.039062 0.269531 -5.921875 0.03125 -5.453125 C -0.300781 -4.796875 -0.65625 -4.132812 -1.03125 -3.46875 C -1.207031 -3.101562 -1.40625 -2.722656 -1.625 -2.328125 C -1.644531 -2.273438 -1.664062 -2.21875 -1.6875 -2.15625 C -1.769531 -2.03125 -1.847656 -1.90625 -1.921875 -1.78125 C -2.003906 -1.664062 -2.144531 -1.582031 -2.34375 -1.53125 C -2.4375 -1.507812 -2.535156 -1.5 -2.640625 -1.5 C -2.753906 -1.5 -2.851562 -1.519531 -2.9375 -1.5625 C -3.007812 -1.625 -3.070312 -1.707031 -3.125 -1.8125 C -3.175781 -1.914062 -3.203125 -2.019531 -3.203125 -2.125 C -3.117188 -2.46875 -3 -2.8125 -2.84375 -3.15625 C -2.507812 -3.925781 -2.179688 -4.679688 -1.859375 -5.421875 C -1.035156 -7.316406 -0.175781 -9.191406 0.71875 -11.046875 C 3.207031 -16.148438 5.570312 -21.300781 7.8125 -26.5 C 8 -27 8.25 -27.445312 8.5625 -27.84375 C 8.800781 -28.132812 9.128906 -28.210938 9.546875 -28.078125 C 9.984375 -27.898438 10.113281 -27.59375 9.9375 -27.15625 C 9.65625 -26.269531 9.34375 -25.378906 9 -24.484375 C 7.332031 -20.359375 5.507812 -16.316406 3.53125 -12.359375 C 3.113281 -11.503906 2.960938 -10.960938 3.078125 -10.734375 C 3.203125 -10.515625 3.484375 -10.5 3.921875 -10.6875 C 4.367188 -10.875 4.882812 -11.125 5.46875 -11.4375 C 5.894531 -11.675781 6.316406 -11.882812 6.734375 -12.0625 C 6.816406 -12.125 6.894531 -12.164062 6.96875 -12.1875 C 7.476562 -12.476562 8.023438 -12.632812 8.609375 -12.65625 C 8.835938 -12.65625 9.003906 -12.554688 9.109375 -12.359375 C 9.171875 -12.222656 9.175781 -12.109375 9.125 -12.015625 C 9.070312 -11.921875 9.003906 -11.847656 8.921875 -11.796875 C 8.015625 -11.265625 7.097656 -10.757812 6.171875 -10.28125 C 5.734375 -10.082031 5.273438 -9.863281 4.796875 -9.625 C 4.328125 -9.40625 3.863281 -9.175781 3.40625 -8.9375 C 3.09375 -8.757812 2.804688 -8.546875 2.546875 -8.296875 C 1.929688 -7.660156 1.992188 -7.132812 2.734375 -6.71875 C 3.347656 -6.457031 3.960938 -6.316406 4.578125 -6.296875 C 5.203125 -6.285156 5.820312 -6.359375 6.4375 -6.515625 C 8.332031 -6.941406 10.113281 -7.632812 11.78125 -8.59375 C 11.914062 -8.664062 12.046875 -8.734375 12.171875 -8.796875 C 12.484375 -8.992188 12.816406 -9.171875 13.171875 -9.328125 C 13.296875 -9.390625 13.4375 -9.414062 13.59375 -9.40625 C 13.75 -9.394531 13.867188 -9.320312 13.953125 -9.1875 Z M 13.953125 -9.1875 "/></g></g></g><g fill="rgb(0%, 0%, 0%)" fill-opacity="1"><g transform="translate(227.845047, 157.508291)"><g/></g></g><g fill="rgb(95.689392%, 58.81958%, 9.799194%)" fill-opacity="1"><g transform="translate(241.450737, 157.508291)"><g><path d="M 97.359375 -16.46875 C 95.066406 -16.726562 92.753906 -16.859375 90.421875 -16.859375 C 89.398438 -16.898438 88.363281 -16.929688 87.3125 -16.953125 C 77.6875 -17.347656 68.039062 -17.445312 58.375 -17.25 C 57.894531 -17.25 57.5 -17.25 57.1875 -17.25 C 56.664062 -17.289062 56.28125 -17.289062 56.03125 -17.25 C 55.789062 -17.207031 55.597656 -17.070312 55.453125 -16.84375 C 55.316406 -16.625 55.148438 -16.265625 54.953125 -15.765625 C 54.828125 -15.472656 54.671875 -15.113281 54.484375 -14.6875 C 52.878906 -11.175781 51.40625 -7.609375 50.0625 -3.984375 C 49.1875 -1.640625 48.503906 0.757812 48.015625 3.21875 C 47.835938 3.988281 47.773438 4.738281 47.828125 5.46875 C 47.890625 6.195312 48.21875 6.847656 48.8125 7.421875 C 48.894531 7.484375 48.925781 7.554688 48.90625 7.640625 C 48.882812 7.734375 48.828125 7.816406 48.734375 7.890625 C 48.648438 7.972656 48.5625 8.023438 48.46875 8.046875 C 47.039062 8.265625 46.179688 7.753906 45.890625 6.515625 C 45.722656 5.816406 45.695312 5.101562 45.8125 4.375 C 45.8125 4.3125 45.8125 4.269531 45.8125 4.25 C 45.914062 2.988281 46.140625 1.734375 46.484375 0.484375 C 46.828125 -0.753906 47.207031 -2 47.625 -3.25 C 48.976562 -6.988281 50.472656 -10.6875 52.109375 -14.34375 C 52.191406 -14.5 52.257812 -14.65625 52.3125 -14.8125 C 52.394531 -14.988281 52.484375 -15.171875 52.578125 -15.359375 C 52.710938 -15.628906 52.832031 -15.894531 52.9375 -16.15625 C 53.050781 -16.414062 53.09375 -16.691406 53.0625 -16.984375 C 52.9375 -17.085938 52.804688 -17.148438 52.671875 -17.171875 C 52.535156 -17.203125 52.40625 -17.207031 52.28125 -17.1875 C 52.25 -17.1875 52.21875 -17.1875 52.1875 -17.1875 C 51.050781 -17.1875 49.914062 -17.171875 48.78125 -17.140625 C 48.46875 -17.140625 48.132812 -17.140625 47.78125 -17.140625 C 47.363281 -17.117188 47.007812 -16.988281 46.71875 -16.75 C 46.4375 -16.507812 46.160156 -16.21875 45.890625 -15.875 C 45.546875 -15.425781 45.203125 -14.976562 44.859375 -14.53125 C 43.378906 -12.644531 41.890625 -10.78125 40.390625 -8.9375 C 38.160156 -6.25 35.835938 -3.65625 33.421875 -1.15625 C 31.003906 1.34375 28.4375 3.6875 25.71875 5.875 C 22.3125 8.6875 18.691406 11.160156 14.859375 13.296875 C 9.003906 16.441406 2.863281 17.929688 -3.5625 17.765625 C -9.613281 17.628906 -15.070312 15.992188 -19.9375 12.859375 C -21.3125 11.984375 -22.523438 10.925781 -23.578125 9.6875 C -24.285156 8.8125 -24.847656 7.863281 -25.265625 6.84375 C -25.679688 5.832031 -25.890625 4.734375 -25.890625 3.546875 C -25.828125 2.117188 -25.5 0.796875 -24.90625 -0.421875 C -24.3125 -1.640625 -23.484375 -2.75 -22.421875 -3.75 C -20.972656 -5.15625 -19.378906 -6.34375 -17.640625 -7.3125 C -15.941406 -8.300781 -14.191406 -9.160156 -12.390625 -9.890625 C -10.597656 -10.628906 -8.789062 -11.289062 -6.96875 -11.875 C -4.019531 -12.820312 -1.039062 -13.617188 1.96875 -14.265625 C 4.988281 -14.910156 8.019531 -15.460938 11.0625 -15.921875 C 18.269531 -16.921875 25.492188 -17.582031 32.734375 -17.90625 C 36.429688 -18.132812 40.117188 -18.25 43.796875 -18.25 C 44.796875 -18.226562 45.570312 -18.65625 46.125 -19.53125 C 47.101562 -20.894531 48.082031 -22.269531 49.0625 -23.65625 C 50.59375 -25.769531 52.097656 -27.914062 53.578125 -30.09375 C 60.441406 -40.351562 67.019531 -50.78125 73.3125 -61.375 C 73.84375 -62.269531 74.359375 -63.179688 74.859375 -64.109375 C 75.097656 -64.578125 75.351562 -65.050781 75.625 -65.53125 C 75.9375 -66.144531 76.429688 -66.488281 77.109375 -66.5625 C 77.484375 -66.5625 77.753906 -66.453125 77.921875 -66.234375 C 78.097656 -66.023438 78.125 -65.75 78 -65.40625 C 77.863281 -65.113281 77.710938 -64.835938 77.546875 -64.578125 C 76.523438 -62.753906 75.617188 -60.90625 74.828125 -59.03125 C 74.523438 -58.363281 74.226562 -57.710938 73.9375 -57.078125 C 71.164062 -51.066406 68.378906 -45.046875 65.578125 -39.015625 C 63.441406 -34.367188 61.289062 -29.707031 59.125 -25.03125 C 58.5 -23.65625 57.878906 -22.28125 57.265625 -20.90625 C 57.128906 -20.625 56.992188 -20.347656 56.859375 -20.078125 C 56.835938 -20.023438 56.816406 -19.960938 56.796875 -19.890625 C 56.710938 -19.691406 56.640625 -19.5 56.578125 -19.3125 C 56.523438 -19.132812 56.546875 -18.953125 56.640625 -18.765625 C 56.816406 -18.640625 57.023438 -18.566406 57.265625 -18.546875 C 57.503906 -18.535156 57.726562 -18.53125 57.9375 -18.53125 C 58.101562 -18.5625 58.25 -18.578125 58.375 -18.578125 C 59.375 -18.546875 60.378906 -18.546875 61.390625 -18.578125 C 62.753906 -18.578125 64.128906 -18.5625 65.515625 -18.53125 C 73.003906 -18.40625 80.503906 -18.242188 88.015625 -18.046875 C 90.472656 -18.003906 92.914062 -17.90625 95.34375 -17.75 C 95.5625 -17.71875 95.789062 -17.703125 96.03125 -17.703125 C 96.15625 -17.703125 96.296875 -17.703125 96.453125 -17.703125 C 96.765625 -17.703125 97.066406 -17.675781 97.359375 -17.625 C 97.660156 -17.570312 97.941406 -17.46875 98.203125 -17.3125 C 98.253906 -17.269531 98.289062 -17.207031 98.3125 -17.125 C 98.332031 -17.050781 98.332031 -16.992188 98.3125 -16.953125 C 98.3125 -16.867188 98.273438 -16.789062 98.203125 -16.71875 C 98.140625 -16.65625 98.085938 -16.613281 98.046875 -16.59375 C 97.828125 -16.507812 97.597656 -16.46875 97.359375 -16.46875 Z M 43.65625 -16.265625 C 43.75 -16.429688 43.757812 -16.582031 43.6875 -16.71875 C 43.625 -16.851562 43.515625 -16.921875 43.359375 -16.921875 C 43.117188 -16.941406 42.863281 -16.941406 42.59375 -16.921875 C 42.46875 -16.921875 42.335938 -16.921875 42.203125 -16.921875 C 33.140625 -16.804688 24.066406 -16.179688 14.984375 -15.046875 C 11.515625 -14.617188 8.0625 -14.0625 4.625 -13.375 C 1.195312 -12.695312 -2.203125 -11.84375 -5.578125 -10.8125 C -7.378906 -10.257812 -9.15625 -9.625 -10.90625 -8.90625 C -12.664062 -8.1875 -14.378906 -7.335938 -16.046875 -6.359375 C -17.785156 -5.390625 -19.375 -4.203125 -20.8125 -2.796875 C -22.476562 -1.078125 -23.414062 0.75 -23.625 2.6875 C -23.832031 4.632812 -23.3125 6.503906 -22.0625 8.296875 C -21.132812 9.566406 -20.03125 10.648438 -18.75 11.546875 C -14.0625 14.867188 -8.484375 16.5625 -2.015625 16.625 C -0.359375 16.625 1.539062 16.410156 3.6875 15.984375 C 5.832031 15.535156 7.898438 14.878906 9.890625 14.015625 C 11.878906 13.160156 13.8125 12.148438 15.6875 10.984375 C 20.3125 8.140625 24.59375 4.828125 28.53125 1.046875 C 31.257812 -1.515625 33.828125 -4.207031 36.234375 -7.03125 C 38.648438 -9.863281 40.992188 -12.742188 43.265625 -15.671875 C 43.398438 -15.890625 43.53125 -16.085938 43.65625 -16.265625 Z M 54.6875 -20 C 56.425781 -23.957031 58.222656 -27.90625 60.078125 -31.84375 C 60.160156 -32.0625 60.4375 -32.679688 60.90625 -33.703125 C 61.382812 -34.734375 61.929688 -35.929688 62.546875 -37.296875 C 63.171875 -38.660156 63.738281 -39.945312 64.25 -41.15625 C 64.769531 -42.375 65.132812 -43.285156 65.34375 -43.890625 C 65.550781 -44.492188 65.488281 -44.550781 65.15625 -44.0625 C 65.070312 -43.945312 65.003906 -43.835938 64.953125 -43.734375 C 64.660156 -43.316406 64.382812 -42.894531 64.125 -42.46875 C 61.925781 -39.0625 59.71875 -35.65625 57.5 -32.25 C 55.28125 -28.851562 52.976562 -25.503906 50.59375 -22.203125 C 50.363281 -21.890625 50.128906 -21.5625 49.890625 -21.21875 C 49.441406 -20.59375 48.992188 -19.960938 48.546875 -19.328125 C 48.367188 -19.066406 48.316406 -18.847656 48.390625 -18.671875 C 48.472656 -18.492188 48.65625 -18.40625 48.9375 -18.40625 C 49.414062 -18.40625 49.890625 -18.421875 50.359375 -18.453125 C 51.109375 -18.503906 51.847656 -18.53125 52.578125 -18.53125 C 53.140625 -18.507812 53.578125 -18.628906 53.890625 -18.890625 C 54.203125 -19.160156 54.46875 -19.53125 54.6875 -20 Z M 54.6875 -20 "/></g></g></g><g fill="rgb(95.689392%, 58.81958%, 9.799194%)" fill-opacity="1"><g transform="translate(298.541045, 157.508291)"><g><path d="M 8.71875 -9.125 C 6.820312 -8.414062 5.453125 -7.84375 4.609375 -7.40625 C 3.992188 -7.101562 3.640625 -6.851562 3.546875 -6.65625 C 3.460938 -6.457031 3.535156 -6.09375 3.765625 -5.5625 C 3.765625 -5.539062 3.78125 -5.503906 3.8125 -5.453125 C 4.082031 -4.816406 4.238281 -4.15625 4.28125 -3.46875 C 4.363281 -2.09375 3.191406 -1.128906 0.765625 -0.578125 C -1.660156 -0.0234375 -3.285156 -0.00390625 -4.109375 -0.515625 C -4.929688 -1.035156 -5.179688 -1.691406 -4.859375 -2.484375 C -4.546875 -3.273438 -3.722656 -4.078125 -2.390625 -4.890625 C -1.054688 -5.710938 -0.164062 -6.300781 0.28125 -6.65625 C 0.726562 -7.019531 0.863281 -7.425781 0.6875 -7.875 C 0.625 -8.03125 0.554688 -8.1875 0.484375 -8.34375 C 0.328125 -8.707031 0.164062 -9.09375 0 -9.5 C -0.3125 -10.21875 -0.445312 -10.921875 -0.40625 -11.609375 C -0.363281 -12.304688 -0.109375 -12.894531 0.359375 -13.375 C 0.835938 -13.851562 1.578125 -14.109375 2.578125 -14.140625 C 3.140625 -14.160156 3.640625 -14.082031 4.078125 -13.90625 C 4.523438 -13.738281 4.882812 -13.421875 5.15625 -12.953125 C 5.363281 -12.628906 5.296875 -12.332031 4.953125 -12.0625 C 4.722656 -11.882812 4.476562 -11.863281 4.21875 -12 C 4.050781 -12.070312 3.890625 -12.171875 3.734375 -12.296875 C 3.734375 -12.335938 3.734375 -12.359375 3.734375 -12.359375 C 3.660156 -12.398438 3.59375 -12.445312 3.53125 -12.5 C 3.457031 -12.601562 3.378906 -12.6875 3.296875 -12.75 C 2.984375 -12.976562 2.664062 -13.046875 2.34375 -12.953125 C 2.03125 -12.867188 1.796875 -12.628906 1.640625 -12.234375 C 1.535156 -11.921875 1.484375 -11.601562 1.484375 -11.28125 C 1.503906 -10.882812 1.59375 -10.5 1.75 -10.125 C 1.851562 -9.894531 1.945312 -9.6875 2.03125 -9.5 C 2.238281 -8.96875 2.40625 -8.601562 2.53125 -8.40625 C 2.664062 -8.207031 2.828125 -8.125 3.015625 -8.15625 C 3.203125 -8.1875 4.90625 -8.796875 8.125 -9.984375 C 8.820312 -10.210938 9.019531 -9.925781 8.71875 -9.125 Z M 0.921875 -2.25 C 1.753906 -2.539062 2.109375 -3.101562 1.984375 -3.9375 C 1.984375 -4 1.972656 -4.066406 1.953125 -4.140625 C 1.898438 -4.597656 1.800781 -4.945312 1.65625 -5.1875 C 1.507812 -5.4375 1.1875 -5.429688 0.6875 -5.171875 C -0.5625 -4.460938 -1.71875 -3.632812 -2.78125 -2.6875 C -2.84375 -2.601562 -2.90625 -2.523438 -2.96875 -2.453125 C -2.96875 -2.453125 -2.984375 -2.429688 -3.015625 -2.390625 C -3.078125 -2.296875 -3.082031 -2.1875 -3.03125 -2.0625 C -2.988281 -1.945312 -2.882812 -1.890625 -2.71875 -1.890625 C -1.476562 -1.703125 -0.265625 -1.820312 0.921875 -2.25 Z M 0.921875 -2.25 "/></g></g></g><g fill="rgb(95.689392%, 58.81958%, 9.799194%)" fill-opacity="1"><g transform="translate(306.51929, 157.508291)"><g><path d="M 8.71875 -9.125 C 6.820312 -8.414062 5.453125 -7.84375 4.609375 -7.40625 C 3.992188 -7.101562 3.640625 -6.851562 3.546875 -6.65625 C 3.460938 -6.457031 3.535156 -6.09375 3.765625 -5.5625 C 3.765625 -5.539062 3.78125 -5.503906 3.8125 -5.453125 C 4.082031 -4.816406 4.238281 -4.15625 4.28125 -3.46875 C 4.363281 -2.09375 3.191406 -1.128906 0.765625 -0.578125 C -1.660156 -0.0234375 -3.285156 -0.00390625 -4.109375 -0.515625 C -4.929688 -1.035156 -5.179688 -1.691406 -4.859375 -2.484375 C -4.546875 -3.273438 -3.722656 -4.078125 -2.390625 -4.890625 C -1.054688 -5.710938 -0.164062 -6.300781 0.28125 -6.65625 C 0.726562 -7.019531 0.863281 -7.425781 0.6875 -7.875 C 0.625 -8.03125 0.554688 -8.1875 0.484375 -8.34375 C 0.328125 -8.707031 0.164062 -9.09375 0 -9.5 C -0.3125 -10.21875 -0.445312 -10.921875 -0.40625 -11.609375 C -0.363281 -12.304688 -0.109375 -12.894531 0.359375 -13.375 C 0.835938 -13.851562 1.578125 -14.109375 2.578125 -14.140625 C 3.140625 -14.160156 3.640625 -14.082031 4.078125 -13.90625 C 4.523438 -13.738281 4.882812 -13.421875 5.15625 -12.953125 C 5.363281 -12.628906 5.296875 -12.332031 4.953125 -12.0625 C 4.722656 -11.882812 4.476562 -11.863281 4.21875 -12 C 4.050781 -12.070312 3.890625 -12.171875 3.734375 -12.296875 C 3.734375 -12.335938 3.734375 -12.359375 3.734375 -12.359375 C 3.660156 -12.398438 3.59375 -12.445312 3.53125 -12.5 C 3.457031 -12.601562 3.378906 -12.6875 3.296875 -12.75 C 2.984375 -12.976562 2.664062 -13.046875 2.34375 -12.953125 C 2.03125 -12.867188 1.796875 -12.628906 1.640625 -12.234375 C 1.535156 -11.921875 1.484375 -11.601562 1.484375 -11.28125 C 1.503906 -10.882812 1.59375 -10.5 1.75 -10.125 C 1.851562 -9.894531 1.945312 -9.6875 2.03125 -9.5 C 2.238281 -8.96875 2.40625 -8.601562 2.53125 -8.40625 C 2.664062 -8.207031 2.828125 -8.125 3.015625 -8.15625 C 3.203125 -8.1875 4.90625 -8.796875 8.125 -9.984375 C 8.820312 -10.210938 9.019531 -9.925781 8.71875 -9.125 Z M 0.921875 -2.25 C 1.753906 -2.539062 2.109375 -3.101562 1.984375 -3.9375 C 1.984375 -4 1.972656 -4.066406 1.953125 -4.140625 C 1.898438 -4.597656 1.800781 -4.945312 1.65625 -5.1875 C 1.507812 -5.4375 1.1875 -5.429688 0.6875 -5.171875 C -0.5625 -4.460938 -1.71875 -3.632812 -2.78125 -2.6875 C -2.84375 -2.601562 -2.90625 -2.523438 -2.96875 -2.453125 C -2.96875 -2.453125 -2.984375 -2.429688 -3.015625 -2.390625 C -3.078125 -2.296875 -3.082031 -2.1875 -3.03125 -2.0625 C -2.988281 -1.945312 -2.882812 -1.890625 -2.71875 -1.890625 C -1.476562 -1.703125 -0.265625 -1.820312 0.921875 -2.25 Z M 0.921875 -2.25 "/></g></g></g><g fill="rgb(95.689392%, 58.81958%, 9.799194%)" fill-opacity="1"><g transform="translate(314.497535, 157.508291)"><g><path d="M 7.15625 -7.59375 C 6.519531 -6.832031 5.757812 -6.132812 4.875 -5.5 C 4 -4.863281 3.007812 -4.429688 1.90625 -4.203125 C 0.800781 -3.984375 -0.0507812 -4.066406 -0.65625 -4.453125 C -1.269531 -4.835938 -1.394531 -5.6875 -1.03125 -7 C -0.550781 -8.375 0.109375 -9.679688 0.953125 -10.921875 C 1.148438 -11.179688 1.425781 -11.363281 1.78125 -11.46875 C 2.039062 -11.53125 2.269531 -11.484375 2.46875 -11.328125 C 2.675781 -11.179688 2.753906 -10.992188 2.703125 -10.765625 C 2.523438 -10.335938 2.328125 -9.90625 2.109375 -9.46875 C 1.890625 -9.039062 1.742188 -8.757812 1.671875 -8.625 C 1.253906 -7.851562 0.960938 -7.050781 0.796875 -6.21875 C 0.796875 -5.738281 1.4375 -5.707031 2.71875 -6.125 C 4 -6.539062 5.242188 -7.3125 6.453125 -8.4375 C 7.671875 -9.5625 8.253906 -9.890625 8.203125 -9.421875 C 8.148438 -8.960938 7.800781 -8.351562 7.15625 -7.59375 Z M 4.015625 -13.625 C 3.953125 -13.570312 3.828125 -13.507812 3.640625 -13.4375 C 3.460938 -13.375 3.265625 -13.328125 3.046875 -13.296875 C 2.835938 -13.265625 2.671875 -13.296875 2.546875 -13.390625 C 2.429688 -13.492188 2.429688 -13.691406 2.546875 -13.984375 C 2.734375 -14.484375 2.929688 -14.921875 3.140625 -15.296875 C 3.347656 -15.679688 3.625 -16.097656 3.96875 -16.546875 C 4.175781 -16.753906 4.40625 -16.867188 4.65625 -16.890625 C 4.914062 -16.910156 5.128906 -16.84375 5.296875 -16.6875 C 5.460938 -16.539062 5.507812 -16.332031 5.4375 -16.0625 C 5.175781 -15.113281 4.703125 -14.300781 4.015625 -13.625 Z M 4.015625 -13.625 "/></g></g></g><g fill="rgb(95.689392%, 58.81958%, 9.799194%)" fill-opacity="1"><g transform="translate(321.521264, 157.508291)"><g><path d="M 8.71875 -9.125 C 6.820312 -8.414062 5.453125 -7.84375 4.609375 -7.40625 C 3.992188 -7.101562 3.640625 -6.851562 3.546875 -6.65625 C 3.460938 -6.457031 3.535156 -6.09375 3.765625 -5.5625 C 3.765625 -5.539062 3.78125 -5.503906 3.8125 -5.453125 C 4.082031 -4.816406 4.238281 -4.15625 4.28125 -3.46875 C 4.363281 -2.09375 3.191406 -1.128906 0.765625 -0.578125 C -1.660156 -0.0234375 -3.285156 -0.00390625 -4.109375 -0.515625 C -4.929688 -1.035156 -5.179688 -1.691406 -4.859375 -2.484375 C -4.546875 -3.273438 -3.722656 -4.078125 -2.390625 -4.890625 C -1.054688 -5.710938 -0.164062 -6.300781 0.28125 -6.65625 C 0.726562 -7.019531 0.863281 -7.425781 0.6875 -7.875 C 0.625 -8.03125 0.554688 -8.1875 0.484375 -8.34375 C 0.328125 -8.707031 0.164062 -9.09375 0 -9.5 C -0.3125 -10.21875 -0.445312 -10.921875 -0.40625 -11.609375 C -0.363281 -12.304688 -0.109375 -12.894531 0.359375 -13.375 C 0.835938 -13.851562 1.578125 -14.109375 2.578125 -14.140625 C 3.140625 -14.160156 3.640625 -14.082031 4.078125 -13.90625 C 4.523438 -13.738281 4.882812 -13.421875 5.15625 -12.953125 C 5.363281 -12.628906 5.296875 -12.332031 4.953125 -12.0625 C 4.722656 -11.882812 4.476562 -11.863281 4.21875 -12 C 4.050781 -12.070312 3.890625 -12.171875 3.734375 -12.296875 C 3.734375 -12.335938 3.734375 -12.359375 3.734375 -12.359375 C 3.660156 -12.398438 3.59375 -12.445312 3.53125 -12.5 C 3.457031 -12.601562 3.378906 -12.6875 3.296875 -12.75 C 2.984375 -12.976562 2.664062 -13.046875 2.34375 -12.953125 C 2.03125 -12.867188 1.796875 -12.628906 1.640625 -12.234375 C 1.535156 -11.921875 1.484375 -11.601562 1.484375 -11.28125 C 1.503906 -10.882812 1.59375 -10.5 1.75 -10.125 C 1.851562 -9.894531 1.945312 -9.6875 2.03125 -9.5 C 2.238281 -8.96875 2.40625 -8.601562 2.53125 -8.40625 C 2.664062 -8.207031 2.828125 -8.125 3.015625 -8.15625 C 3.203125 -8.1875 4.90625 -8.796875 8.125 -9.984375 C 8.820312 -10.210938 9.019531 -9.925781 8.71875 -9.125 Z M 0.921875 -2.25 C 1.753906 -2.539062 2.109375 -3.101562 1.984375 -3.9375 C 1.984375 -4 1.972656 -4.066406 1.953125 -4.140625 C 1.898438 -4.597656 1.800781 -4.945312 1.65625 -5.1875 C 1.507812 -5.4375 1.1875 -5.429688 0.6875 -5.171875 C -0.5625 -4.460938 -1.71875 -3.632812 -2.78125 -2.6875 C -2.84375 -2.601562 -2.90625 -2.523438 -2.96875 -2.453125 C -2.96875 -2.453125 -2.984375 -2.429688 -3.015625 -2.390625 C -3.078125 -2.296875 -3.082031 -2.1875 -3.03125 -2.0625 C -2.988281 -1.945312 -2.882812 -1.890625 -2.71875 -1.890625 C -1.476562 -1.703125 -0.265625 -1.820312 0.921875 -2.25 Z M 0.921875 -2.25 "/></g></g></g><g fill="rgb(95.689392%, 58.81958%, 9.799194%)" fill-opacity="1"><g transform="translate(329.499508, 157.508291)"><g><path d="M 11.265625 -8.703125 C 9.648438 -6.804688 8.070312 -5.40625 6.53125 -4.5 C 4.988281 -3.601562 3.335938 -3.304688 1.578125 -3.609375 C -0.179688 -3.921875 -0.90625 -5.101562 -0.59375 -7.15625 C -0.375 -8.1875 -0.0820312 -9.191406 0.28125 -10.171875 C 1.207031 -12.472656 2.144531 -14.753906 3.09375 -17.015625 C 3.40625 -17.835938 3.738281 -18.660156 4.09375 -19.484375 C 4.175781 -19.671875 4.253906 -19.851562 4.328125 -20.03125 C 4.453125 -20.332031 4.582031 -20.640625 4.71875 -20.953125 C 4.90625 -21.472656 4.695312 -21.75 4.09375 -21.78125 C 3.738281 -21.78125 3.394531 -21.78125 3.0625 -21.78125 C 2.90625 -21.78125 2.734375 -21.78125 2.546875 -21.78125 C 2.359375 -21.75 2.171875 -21.722656 1.984375 -21.703125 C 1.671875 -21.679688 1.359375 -21.671875 1.046875 -21.671875 C 0.742188 -21.671875 0.460938 -21.75 0.203125 -21.90625 C 0.128906 -21.925781 0.0703125 -21.96875 0.03125 -22.03125 C -0.0078125 -22.101562 -0.03125 -22.179688 -0.03125 -22.265625 C -0.0078125 -22.316406 0.0234375 -22.375 0.078125 -22.4375 C 0.128906 -22.5 0.195312 -22.539062 0.28125 -22.5625 C 0.550781 -22.675781 0.828125 -22.753906 1.109375 -22.796875 C 1.859375 -22.835938 2.597656 -22.867188 3.328125 -22.890625 C 3.617188 -22.890625 3.875 -22.890625 4.09375 -22.890625 C 4.570312 -22.890625 4.925781 -22.90625 5.15625 -22.9375 C 5.394531 -22.976562 5.582031 -23.109375 5.71875 -23.328125 C 5.863281 -23.546875 6.035156 -23.875 6.234375 -24.3125 C 6.335938 -24.550781 6.46875 -24.816406 6.625 -25.109375 C 7.019531 -25.953125 7.414062 -26.8125 7.8125 -27.6875 C 8 -28.082031 8.1875 -28.46875 8.375 -28.84375 C 8.53125 -29.207031 8.773438 -29.492188 9.109375 -29.703125 C 9.429688 -29.859375 9.71875 -29.847656 9.96875 -29.671875 C 10.03125 -29.617188 10.082031 -29.535156 10.125 -29.421875 C 10.175781 -29.316406 10.203125 -29.222656 10.203125 -29.140625 C 10.203125 -28.671875 10.078125 -28.210938 9.828125 -27.765625 C 9.785156 -27.660156 9.734375 -27.546875 9.671875 -27.421875 C 9.515625 -26.984375 9.347656 -26.539062 9.171875 -26.09375 C 8.816406 -25.28125 8.484375 -24.445312 8.171875 -23.59375 C 8.085938 -23.4375 8.082031 -23.296875 8.15625 -23.171875 C 8.238281 -23.054688 8.359375 -23 8.515625 -23 C 9.367188 -22.976562 10.207031 -22.96875 11.03125 -22.96875 C 11.445312 -22.96875 11.863281 -22.96875 12.28125 -22.96875 C 13.601562 -22.945312 14.132812 -22.757812 13.875 -22.40625 C 13.6875 -22.207031 13.488281 -22.09375 13.28125 -22.0625 C 13.070312 -22.03125 12.859375 -22.03125 12.640625 -22.0625 C 12.515625 -22.0625 12.382812 -22.0625 12.25 -22.0625 C 10.90625 -21.976562 9.570312 -21.925781 8.25 -21.90625 C 7.632812 -21.90625 7.226562 -21.628906 7.03125 -21.078125 C 6.8125 -20.546875 6.597656 -20.015625 6.390625 -19.484375 C 6.085938 -18.796875 5.804688 -18.117188 5.546875 -17.453125 C 5.285156 -16.828125 5.019531 -16.195312 4.75 -15.5625 C 4.070312 -13.957031 3.414062 -12.34375 2.78125 -10.71875 C 2.375 -9.65625 2.0625 -8.570312 1.84375 -7.46875 C 1.332031 -5.46875 2.101562 -4.703125 4.15625 -5.171875 C 6.175781 -5.648438 8.289062 -7.101562 10.5 -9.53125 C 11.457031 -10.144531 11.710938 -9.867188 11.265625 -8.703125 Z M 11.265625 -8.703125 "/></g></g></g><g fill="rgb(95.689392%, 58.81958%, 9.799194%)" fill-opacity="1"><g transform="translate(339.728939, 157.508291)"><g><path d="M 13.0625 -9.171875 C 13.34375 -9.015625 13.363281 -8.625 13.125 -8 C 12.78125 -7.539062 12.410156 -7.113281 12.015625 -6.71875 C 11.617188 -6.320312 11.1875 -5.96875 10.71875 -5.65625 C 10.675781 -5.65625 10.65625 -5.644531 10.65625 -5.625 C 10.351562 -5.40625 10.023438 -5.21875 9.671875 -5.0625 C 6.804688 -4.03125 5.34375 -4.632812 5.28125 -6.875 C 4.113281 -5.875 3.332031 -5.257812 2.9375 -5.03125 C 1.988281 -4.457031 0.960938 -4.203125 -0.140625 -4.265625 C -0.960938 -4.316406 -1.519531 -4.566406 -1.8125 -5.015625 C -2.101562 -5.460938 -2.078125 -6.070312 -1.734375 -6.84375 C -1.203125 -8.0625 -0.453125 -9.144531 0.515625 -10.09375 C 1.660156 -11.144531 2.929688 -11.988281 4.328125 -12.625 C 5.066406 -13 5.847656 -13.144531 6.671875 -13.0625 C 7.484375 -13.007812 7.972656 -12.546875 8.140625 -11.671875 C 8.210938 -11.410156 8.144531 -11.175781 7.9375 -10.96875 C 7.675781 -10.726562 7.375 -10.675781 7.03125 -10.8125 C 7 -10.8125 6.960938 -10.816406 6.921875 -10.828125 C 6.878906 -10.835938 6.847656 -10.851562 6.828125 -10.875 C 6.472656 -11.351562 6.117188 -11.550781 5.765625 -11.46875 C 5.410156 -11.394531 5.035156 -11.238281 4.640625 -11 C 2.796875 -9.925781 1.421875 -8.421875 0.515625 -6.484375 C 0.472656 -6.398438 0.445312 -6.304688 0.4375 -6.203125 C 0.425781 -6.097656 0.453125 -6.019531 0.515625 -5.96875 C 0.734375 -5.894531 0.972656 -5.90625 1.234375 -6 C 1.503906 -6.101562 1.769531 -6.253906 2.03125 -6.453125 C 2.300781 -6.648438 2.523438 -6.816406 2.703125 -6.953125 C 2.722656 -6.984375 2.734375 -7 2.734375 -7 C 3.609375 -7.738281 4.46875 -8.492188 5.3125 -9.265625 C 5.6875 -9.660156 6.148438 -9.878906 6.703125 -9.921875 C 7.492188 -9.921875 7.820312 -9.566406 7.6875 -8.859375 C 7.613281 -8.597656 7.535156 -8.332031 7.453125 -8.0625 C 7.140625 -6.925781 7.128906 -6.257812 7.421875 -6.0625 C 7.710938 -5.863281 8.15625 -5.863281 8.75 -6.0625 C 9.34375 -6.257812 9.9375 -6.632812 10.53125 -7.1875 C 11.125 -7.75 11.625 -8.257812 12.03125 -8.71875 C 12.4375 -9.1875 12.78125 -9.335938 13.0625 -9.171875 Z M 13.0625 -9.171875 "/></g></g></g><g fill="rgb(95.689392%, 58.81958%, 9.799194%)" fill-opacity="1"><g transform="translate(351.669287, 157.508291)"><g><path d="M 14.265625 -8.984375 C 14.453125 -8.742188 14.207031 -8.304688 13.53125 -7.671875 C 12.863281 -7.035156 12.148438 -6.5 11.390625 -6.0625 C 10.640625 -5.632812 9.765625 -5.207031 8.765625 -4.78125 C 8.109375 -4.488281 7.40625 -4.390625 6.65625 -4.484375 C 5.914062 -4.578125 5.546875 -5.023438 5.546875 -5.828125 C 5.546875 -6.640625 5.734375 -7.441406 6.109375 -8.234375 C 6.484375 -9.046875 6.5625 -9.460938 6.34375 -9.484375 C 6.132812 -9.515625 5.703125 -9.316406 5.046875 -8.890625 C 3.328125 -7.765625 1.726562 -6.476562 0.25 -5.03125 C -0.144531 -4.550781 -0.648438 -4.285156 -1.265625 -4.234375 C -1.578125 -4.234375 -1.816406 -4.332031 -1.984375 -4.53125 C -2.160156 -4.726562 -2.179688 -4.941406 -2.046875 -5.171875 C -0.992188 -7.128906 0.0703125 -9.0625 1.15625 -10.96875 C 1.394531 -11.363281 1.753906 -11.609375 2.234375 -11.703125 C 2.441406 -11.742188 2.628906 -11.679688 2.796875 -11.515625 C 2.972656 -11.359375 3.0625 -11.175781 3.0625 -10.96875 C 3.039062 -10.78125 2.960938 -10.550781 2.828125 -10.28125 C 2.765625 -10.125 2.707031 -9.972656 2.65625 -9.828125 C 2.601562 -9.691406 2.582031 -9.570312 2.59375 -9.46875 C 2.613281 -9.375 2.691406 -9.347656 2.828125 -9.390625 C 3.003906 -9.484375 3.1875 -9.582031 3.375 -9.6875 C 3.820312 -9.957031 4.257812 -10.210938 4.6875 -10.453125 C 5.050781 -10.660156 5.4375 -10.847656 5.84375 -11.015625 C 6.257812 -11.191406 6.691406 -11.304688 7.140625 -11.359375 C 7.859375 -11.410156 8.363281 -11.25 8.65625 -10.875 C 8.957031 -10.507812 8.992188 -9.992188 8.765625 -9.328125 C 8.523438 -8.734375 8.273438 -8.140625 8.015625 -7.546875 C 7.691406 -6.992188 7.632812 -6.570312 7.84375 -6.28125 C 8.0625 -6 9.066406 -6.332031 10.859375 -7.28125 L 12.21875 -8.0625 C 13.488281 -8.882812 14.171875 -9.191406 14.265625 -8.984375 Z M 14.265625 -8.984375 "/></g></g></g><g fill="rgb(95.689392%, 58.81958%, 9.799194%)" fill-opacity="1"><g transform="translate(364.870305, 157.508291)"><g><path d="M 11.265625 -8.703125 C 9.648438 -6.804688 8.070312 -5.40625 6.53125 -4.5 C 4.988281 -3.601562 3.335938 -3.304688 1.578125 -3.609375 C -0.179688 -3.921875 -0.90625 -5.101562 -0.59375 -7.15625 C -0.375 -8.1875 -0.0820312 -9.191406 0.28125 -10.171875 C 1.207031 -12.472656 2.144531 -14.753906 3.09375 -17.015625 C 3.40625 -17.835938 3.738281 -18.660156 4.09375 -19.484375 C 4.175781 -19.671875 4.253906 -19.851562 4.328125 -20.03125 C 4.453125 -20.332031 4.582031 -20.640625 4.71875 -20.953125 C 4.90625 -21.472656 4.695312 -21.75 4.09375 -21.78125 C 3.738281 -21.78125 3.394531 -21.78125 3.0625 -21.78125 C 2.90625 -21.78125 2.734375 -21.78125 2.546875 -21.78125 C 2.359375 -21.75 2.171875 -21.722656 1.984375 -21.703125 C 1.671875 -21.679688 1.359375 -21.671875 1.046875 -21.671875 C 0.742188 -21.671875 0.460938 -21.75 0.203125 -21.90625 C 0.128906 -21.925781 0.0703125 -21.96875 0.03125 -22.03125 C -0.0078125 -22.101562 -0.03125 -22.179688 -0.03125 -22.265625 C -0.0078125 -22.316406 0.0234375 -22.375 0.078125 -22.4375 C 0.128906 -22.5 0.195312 -22.539062 0.28125 -22.5625 C 0.550781 -22.675781 0.828125 -22.753906 1.109375 -22.796875 C 1.859375 -22.835938 2.597656 -22.867188 3.328125 -22.890625 C 3.617188 -22.890625 3.875 -22.890625 4.09375 -22.890625 C 4.570312 -22.890625 4.925781 -22.90625 5.15625 -22.9375 C 5.394531 -22.976562 5.582031 -23.109375 5.71875 -23.328125 C 5.863281 -23.546875 6.035156 -23.875 6.234375 -24.3125 C 6.335938 -24.550781 6.46875 -24.816406 6.625 -25.109375 C 7.019531 -25.953125 7.414062 -26.8125 7.8125 -27.6875 C 8 -28.082031 8.1875 -28.46875 8.375 -28.84375 C 8.53125 -29.207031 8.773438 -29.492188 9.109375 -29.703125 C 9.429688 -29.859375 9.71875 -29.847656 9.96875 -29.671875 C 10.03125 -29.617188 10.082031 -29.535156 10.125 -29.421875 C 10.175781 -29.316406 10.203125 -29.222656 10.203125 -29.140625 C 10.203125 -28.671875 10.078125 -28.210938 9.828125 -27.765625 C 9.785156 -27.660156 9.734375 -27.546875 9.671875 -27.421875 C 9.515625 -26.984375 9.347656 -26.539062 9.171875 -26.09375 C 8.816406 -25.28125 8.484375 -24.445312 8.171875 -23.59375 C 8.085938 -23.4375 8.082031 -23.296875 8.15625 -23.171875 C 8.238281 -23.054688 8.359375 -23 8.515625 -23 C 9.367188 -22.976562 10.207031 -22.96875 11.03125 -22.96875 C 11.445312 -22.96875 11.863281 -22.96875 12.28125 -22.96875 C 13.601562 -22.945312 14.132812 -22.757812 13.875 -22.40625 C 13.6875 -22.207031 13.488281 -22.09375 13.28125 -22.0625 C 13.070312 -22.03125 12.859375 -22.03125 12.640625 -22.0625 C 12.515625 -22.0625 12.382812 -22.0625 12.25 -22.0625 C 10.90625 -21.976562 9.570312 -21.925781 8.25 -21.90625 C 7.632812 -21.90625 7.226562 -21.628906 7.03125 -21.078125 C 6.8125 -20.546875 6.597656 -20.015625 6.390625 -19.484375 C 6.085938 -18.796875 5.804688 -18.117188 5.546875 -17.453125 C 5.285156 -16.828125 5.019531 -16.195312 4.75 -15.5625 C 4.070312 -13.957031 3.414062 -12.34375 2.78125 -10.71875 C 2.375 -9.65625 2.0625 -8.570312 1.84375 -7.46875 C 1.332031 -5.46875 2.101562 -4.703125 4.15625 -5.171875 C 6.175781 -5.648438 8.289062 -7.101562 10.5 -9.53125 C 11.457031 -10.144531 11.710938 -9.867188 11.265625 -8.703125 Z M 11.265625 -8.703125 "/></g></g></g></svg>