<svg xmlns="http://www.w3.org/2000/svg" xmlns:xlink="http://www.w3.org/1999/xlink" width="100" zoomAndPan="magnify" viewBox="0 0 75 74.999997" height="100" preserveAspectRatio="xMidYMid meet" version="1.0"><defs><g><g id="id1"/></g><clipPath id="id2"><path d="M 27 29 L 52 29 L 52 46.722656 L 27 46.722656 Z M 27 29 " clip-rule="nonzero"/></clipPath><clipPath id="id3"><path d="M 13.636719 11.925781 L 61.554688 11.925781 L 61.554688 37 L 13.636719 37 Z M 13.636719 11.925781 " clip-rule="nonzero"/></clipPath><clipPath id="id4"><path d="M 24.574219 55 L 53 55 L 53 63 L 24.574219 63 Z M 24.574219 55 " clip-rule="nonzero"/></clipPath><clipPath id="id5"><path d="M 24.574219 54.734375 L 53.09375 54.734375 L 53.09375 63.292969 L 24.574219 63.292969 Z M 24.574219 54.734375 " clip-rule="nonzero"/></clipPath></defs><g clip-path="url(#id2)"><path fill="rgb(29.798889%, 43.919373%, 19.219971%)" d="M 48.523438 41.03125 C 39.464844 39.753906 32.289062 37.527344 27.023438 46.722656 C 36.925781 39.25 46.316406 43.914062 50.359375 45.472656 C 51.304688 41.246094 52.949219 31.730469 48.019531 29.488281 C 50.066406 32.417969 49.570312 37.382812 48.523438 41.03125 Z M 48.523438 41.03125 " fill-opacity="1" fill-rule="evenodd"/></g><path fill="rgb(95.689392%, 58.81958%, 9.799194%)" d="M 27.640625 28.097656 C 34.3125 26.703125 41.402344 33.195312 46.769531 28.460938 C 41.257812 30.566406 23.164062 15.796875 21.617188 31.394531 C 22.558594 30.269531 23.667969 29.519531 24.921875 29.09375 C 28.292969 37.855469 28.152344 41.980469 27.273438 44.417969 C 30.453125 39.929688 28.382812 33.171875 27.640625 28.097656 Z M 27.640625 28.097656 " fill-opacity="1" fill-rule="evenodd"/><g clip-path="url(#id3)"><path fill="rgb(29.798889%, 43.919373%, 19.219971%)" d="M 35.925781 16.929688 C 39.957031 19.257812 44.199219 22.046875 47.667969 24.871094 C 46.566406 22.53125 45.535156 21.839844 44.335938 20.628906 C 53.726562 15.734375 65.027344 28.152344 53.464844 33.84375 C 59.59375 33.304688 62.585938 28.953125 61.214844 23.433594 C 59.355469 15.945312 50.011719 14.210938 42.699219 19.042969 C 22 -1.820312 1.03125 29.078125 22.984375 36.671875 C 21.703125 35.292969 19.515625 33.773438 18.667969 32.695312 C 11.085938 23.019531 23.84375 9.949219 35.925781 16.929688 Z M 35.925781 16.929688 " fill-opacity="1" fill-rule="evenodd"/></g><path fill="rgb(29.798889%, 43.919373%, 19.219971%)" d="M 32.933594 47.277344 C 31.675781 47.277344 30.652344 48.300781 30.652344 49.558594 C 30.652344 50.820312 31.675781 51.839844 32.933594 51.839844 C 34.195312 51.839844 35.214844 50.820312 35.214844 49.558594 C 35.214844 48.300781 34.195312 47.277344 32.933594 47.277344 " fill-opacity="1" fill-rule="nonzero"/><path fill="rgb(29.798889%, 43.919373%, 19.219971%)" d="M 44.550781 47.277344 C 43.292969 47.277344 42.269531 48.300781 42.269531 49.558594 C 42.269531 50.820312 43.292969 51.839844 44.550781 51.839844 C 45.8125 51.839844 46.832031 50.820312 46.832031 49.558594 C 46.832031 48.300781 45.8125 47.277344 44.550781 47.277344 " fill-opacity="1" fill-rule="nonzero"/><g clip-path="url(#id4)"><path fill="rgb(29.798889%, 43.919373%, 19.219971%)" d="M 36.199219 55.070312 C 35.902344 55.074219 35.582031 55.113281 35.234375 55.1875 C 32.445312 55.800781 31.453125 58.699219 29.660156 59.867188 C 27.871094 61.039062 26.050781 60.476562 25.78125 59.96875 C 25.507812 59.460938 25.578125 58.902344 26.027344 58.597656 C 26.761719 58.097656 26.824219 59.15625 26.824219 59.15625 C 26.824219 59.15625 26.976562 57.390625 25.480469 58.242188 C 24.585938 58.75 24.609375 60.726562 26.128906 61.851562 C 28.039062 63.269531 30.738281 62.957031 32.992188 62.511719 C 35.0625 62.105469 37.535156 60.828125 38.617188 59.5625 C 38.699219 59.464844 38.773438 59.363281 38.835938 59.261719 C 38.898438 59.363281 38.96875 59.464844 39.054688 59.5625 C 40.132812 60.828125 42.605469 62.105469 44.675781 62.511719 C 46.933594 62.957031 49.628906 63.269531 51.539062 61.851562 C 53.0625 60.726562 53.082031 58.75 52.1875 58.242188 C 50.691406 57.390625 50.84375 59.15625 50.84375 59.15625 C 50.84375 59.15625 50.90625 58.097656 51.640625 58.597656 C 52.089844 58.902344 52.160156 59.460938 51.890625 59.96875 C 51.617188 60.476562 49.800781 61.039062 48.007812 59.867188 C 46.21875 58.699219 45.222656 55.796875 42.4375 55.1875 C 40.464844 54.757812 39.339844 55.601562 38.835938 56.308594 C 38.417969 55.726562 37.582031 55.050781 36.199219 55.070312 Z M 36.199219 55.070312 " fill-opacity="1" fill-rule="nonzero"/></g><g clip-path="url(#id5)"><path stroke-linecap="butt" transform="matrix(0.0246114, 0, 0, 0.0251589, 26.879923, 43.440977)" fill="none" stroke-linejoin="miter" d="M 378.657308 462.234852 C 366.594821 462.390115 353.580033 463.942745 339.454226 466.892741 C 226.130336 491.269023 185.816235 606.47413 112.965164 652.897751 C 40.272809 699.476635 -33.689282 677.118771 -44.64075 656.934588 C -55.750935 636.750404 -52.89403 614.547803 -34.641583 602.437293 C -4.8028 582.563636 -2.263329 624.639895 -2.263329 624.639895 C -2.263329 624.639895 3.926631 554.461043 -56.861954 588.308365 C -93.208131 608.492548 -92.255829 687.055599 -30.514943 731.771328 C 47.097637 788.131778 156.771037 775.710742 248.350707 758.010766 C 332.470681 741.863419 432.938499 691.092436 476.903089 640.787241 C 480.236144 636.905667 483.251766 632.868831 485.791237 628.831994 C 488.330708 632.868831 491.187613 636.905667 494.679385 640.787241 C 538.485258 691.092436 638.953076 741.863419 723.07305 758.010766 C 814.811437 775.710742 924.32612 788.131778 1001.9387 731.771328 C 1063.838303 687.055599 1064.631888 608.492548 1028.28571 588.308365 C 967.497126 554.461043 973.687086 624.639895 973.687086 624.639895 C 973.687086 624.639895 976.226557 582.563636 1006.06534 602.437293 C 1024.317787 614.547803 1027.174692 636.750404 1016.223224 656.934588 C 1005.113038 677.118771 931.309665 699.476635 858.458593 652.897751 C 785.766238 606.47413 745.293421 491.11376 632.128248 466.892741 C 551.976198 449.813816 506.265721 483.350613 485.791237 511.453206 C 468.808525 488.319027 434.843102 461.458537 378.657308 462.234852 Z M 378.657308 462.234852 " stroke="rgb(0%, 0%, 0%)" stroke-width="1.662" stroke-opacity="1" stroke-miterlimit="4"/></g><g fill="rgb(95.689392%, 58.81958%, 9.799194%)" fill-opacity="1"><g transform="translate(29.267694, 29.76439)"><g><path d="M 4.609375 -0.578125 L 4.65625 -0.3125 C 4.15625 0.289062 3.5625 0.925781 2.875 1.59375 C 2.1875 2.269531 1.523438 2.890625 0.890625 3.453125 L -0.359375 2.875 C 0.160156 2.21875 0.710938 1.492188 1.296875 0.703125 C 1.890625 -0.0859375 2.390625 -0.796875 2.796875 -1.421875 Z M 4.609375 -0.578125 "/></g></g></g></svg>